<?xml version="1.0" encoding="UTF-8"?>
<svg version="1.1" xmlns="http://www.w3.org/2000/svg" width="225" height="225">
<path d="M0 0 C74.25 0 148.5 0 225 0 C225 74.25 225 148.5 225 225 C150.75 225 76.5 225 0 225 C0 150.75 0 76.5 0 0 Z " fill="#FEFEFE" transform="translate(0,0)"/>
<path d="M0 0 C1.01449219 -0.02578125 2.02898437 -0.0515625 3.07421875 -0.078125 C11.30179742 0.75555004 18.50705614 6.1090057 25.5 10.1875 C26.66780076 10.86538361 27.8356893 11.54311601 29.00366211 12.22070312 C37.42532334 17.11475123 45.80054817 22.08417896 54.1328125 27.12890625 C58.04884913 29.49816252 61.98552412 31.8302218 65.9296875 34.15234375 C67.06140381 34.82201172 68.19312012 35.49167969 69.35913086 36.18164062 C71.57007037 37.48951585 73.78428519 38.79187474 76.00219727 40.08789062 C83.47347655 44.52327265 88.9485639 48.52918998 93.3125 56.25 C92.9825 57.24 92.6525 58.23 92.3125 59.25 C91.3225 58.59 90.3325 57.93 89.3125 57.25 C83.63689243 57.45638573 79.59389176 59.43642002 74.875 62.375 C74.15111084 62.81312012 73.42722168 63.25124023 72.68139648 63.70263672 C70.215342 65.20313107 67.76289386 66.72407292 65.3125 68.25 C64.41789063 68.80558594 63.52328125 69.36117187 62.6015625 69.93359375 C57.6414799 73.01818806 52.69140307 76.11834964 47.74609375 79.2265625 C43.29573529 82.01859421 38.82945482 84.78234217 34.34765625 87.5234375 C33.76873123 87.87785919 33.18980621 88.23228088 32.59333801 88.59744263 C29.80361986 90.30477506 27.01194194 92.00867065 24.21704102 93.70751953 C11.38559831 100.91345051 11.38559831 100.91345051 1.3125 111.25 C0.95690002 111.77832932 0.60130005 112.30665863 0.23492432 112.85099792 C-1.16115604 116.48186456 -0.96510106 120.11049982 -0.94628906 123.9465332 C-0.9497937 124.82344818 -0.95329834 125.70036316 -0.95690918 126.60385132 C-0.96571152 129.50290851 -0.95988106 132.40172157 -0.953125 135.30078125 C-0.95447244 137.31853787 -0.95641364 139.33629417 -0.95892334 141.35404968 C-0.96187288 145.58494149 -0.95758374 149.81574887 -0.94824219 154.04663086 C-0.9368697 159.46033896 -0.94339425 164.87384827 -0.95538712 170.28754902 C-0.96262899 174.45606471 -0.96030671 178.62453363 -0.95513153 182.79305077 C-0.95380033 184.78847464 -0.95542414 186.78390281 -0.96009064 188.77932167 C-0.96519165 191.57475578 -0.9573945 194.36987261 -0.94628906 197.1652832 C-0.95033752 197.9847493 -0.95438599 198.80421539 -0.95855713 199.64851379 C-0.92275982 204.5330571 -0.47676475 208.67542222 1.3125 213.25 C2.3025 213.58 3.2925 213.91 4.3125 214.25 C4.3125 214.58 4.3125 214.91 4.3125 215.25 C-7.31537412 216.59167778 -17.59486318 208.26901182 -27.125 202.4375 C-29.3064116 201.11443332 -31.48874291 199.7928821 -33.671875 198.47265625 C-34.23541183 198.13159851 -34.79894867 197.79054077 -35.37956238 197.43914795 C-39.65346959 194.85847434 -43.95293316 192.32384192 -48.265625 189.80859375 C-49.21835045 189.25267799 -49.21835045 189.25267799 -50.19032288 188.68553162 C-52.68026843 187.23377179 -55.17073707 185.78296502 -57.6647644 184.33822632 C-64.27856046 180.50667204 -70.83074862 176.59780275 -77.28515625 172.50390625 C-77.86396042 172.14116608 -78.44276459 171.7784259 -79.03910828 171.4046936 C-85.97688869 166.9539359 -90.50753784 162.2503586 -92.6875 154.25 C-92.97712242 151.15732331 -92.98132169 148.07974249 -92.97802734 144.97509766 C-92.98474457 144.06048264 -92.99146179 143.14586761 -92.99838257 142.20353699 C-93.01732715 139.19032305 -93.02128488 136.17733223 -93.0234375 133.1640625 C-93.0298675 131.06187856 -93.03659601 128.95969551 -93.04360962 126.85751343 C-93.05557325 122.45446702 -93.05929134 118.05149901 -93.05810547 113.6484375 C-93.05790225 108.01727158 -93.08521214 102.38661013 -93.11964989 96.75556374 C-93.14192843 92.41457832 -93.14594272 88.07371418 -93.14488602 83.73267746 C-93.14724023 81.65712113 -93.15605357 79.58156136 -93.17155075 77.50606155 C-93.19123127 74.59824906 -93.18536457 71.69152283 -93.17333984 68.78369141 C-93.18457886 67.93355972 -93.19581787 67.08342804 -93.20739746 66.20753479 C-93.13729877 59.50873381 -91.28643284 54.3713202 -86.97973633 49.19897461 C-81.18845118 44.35043826 -74.91116637 40.57476041 -68.375 36.8125 C-67.18632334 36.11979765 -65.99818278 35.42617465 -64.81054688 34.73168945 C-62.34363451 33.28998822 -59.8744759 31.85224791 -57.40380859 30.41699219 C-52.62013152 27.63338093 -47.86479548 24.80252504 -43.10839844 21.97265625 C-6.33483904 0.09538026 -6.33483904 0.09538026 0 0 Z " fill="#FEFEFE" transform="translate(111.6875,5.75)"/>
<path d="M0 0 C1.19882813 -0.04253906 2.39765625 -0.08507813 3.6328125 -0.12890625 C14.02476009 0.80169692 24.18993621 9.03878587 32.8125 14.375 C35.26602901 15.88251189 37.72240004 17.38534233 40.1796875 18.88671875 C40.80651932 19.26997314 41.43335114 19.65322754 42.07917786 20.0480957 C50.3210857 25.07346515 58.66821311 29.92046199 67.01733398 34.76489258 C94.21618641 50.59549738 94.21618641 50.59549738 98.23854256 63.05943489 C99.26512093 67.09677083 99.30127105 70.99909397 99.27905273 75.14624023 C99.28591599 76.05808075 99.29277924 76.96992126 99.29985046 77.90939331 C99.3180179 80.89678923 99.31429543 83.88365493 99.30859375 86.87109375 C99.31316027 88.96419951 99.31846724 91.05730377 99.32447815 93.15040588 C99.33338946 97.52717193 99.33100855 101.90375531 99.32104492 106.28051758 C99.30955616 111.86995333 99.32977583 117.45875721 99.35896206 123.04811001 C99.37736864 127.36774148 99.37702273 131.68722275 99.37132454 136.00688362 C99.37117188 138.0668228 99.37717007 140.12677253 99.38961601 142.18667412 C99.5002657 163.49985363 99.5002657 163.49985363 92.9921875 173.4375 C90.50894717 175.92990357 87.98467807 177.69433965 85 179.5625 C84.39397949 179.94293457 83.78795898 180.32336914 83.16357422 180.71533203 C75.97451164 185.19006606 68.66209618 189.46447513 61.359375 193.75 C56.48608369 196.61047713 51.62326829 199.48806971 46.765625 202.375 C46.06311615 202.79250519 45.3606073 203.21001038 44.6368103 203.64016724 C41.82439744 205.31195363 39.01221999 206.98413537 36.20025635 208.65667725 C32.35823995 210.94157069 28.51384277 213.22236276 24.66687012 215.49890137 C22.90403853 216.54526363 21.14563093 217.59875869 19.38769531 218.65332031 C18.32389648 219.28592773 17.26009766 219.91853516 16.1640625 220.5703125 C15.2354541 221.12605957 14.3068457 221.68180664 13.35009766 222.25439453 C9.01370459 224.54620693 5.12833842 224.79688271 0.25 224.9375 C-0.89726563 224.98648438 -2.04453125 225.03546875 -3.2265625 225.0859375 C-12.69063084 223.81521089 -20.93963476 217.36653931 -28.93041992 212.43490601 C-32.03343602 210.52081388 -35.14506764 208.62087504 -38.2578125 206.72265625 C-38.8634906 206.35324417 -39.4691687 205.98383209 -40.09320068 205.60322571 C-44.5536529 202.89096369 -49.0548773 200.27221889 -53.625 197.75 C-59.68910849 194.39714541 -65.67199336 190.92169177 -71.625 187.375 C-72.45064453 186.88733154 -73.27628906 186.39966309 -74.12695312 185.8972168 C-84.77197833 179.52079482 -94.02009109 173.64035022 -97.5228405 161.24789047 C-98.44386414 157.1404935 -98.56771307 153.18491831 -98.56079102 148.98876953 C-98.57086685 148.08974915 -98.58094269 147.19072876 -98.59132385 146.26446533 C-98.61956718 143.32461747 -98.62566796 140.38528715 -98.62890625 137.4453125 C-98.63856235 135.38084715 -98.64865591 133.3163838 -98.65916443 131.25192261 C-98.67706573 126.93661747 -98.68269151 122.62149195 -98.6809082 118.30615234 C-98.68060338 112.80301908 -98.72158513 107.30104735 -98.77322483 101.79818916 C-98.80673521 97.53765673 -98.81266133 93.27740101 -98.81107903 89.01675034 C-98.8145958 86.98913438 -98.82773308 84.96150945 -98.85107613 82.93402481 C-98.98056626 70.5283527 -98.92516915 60.29990708 -90.30712891 50.49407959 C-84.59560961 44.85090077 -76.99430818 41.13950749 -70.0625 37.1875 C-68.74178222 36.42554429 -67.42163577 35.66259748 -66.10205078 34.89868164 C-63.54789408 33.4206191 -60.99184518 31.945933 -58.43408203 30.47412109 C-54.7646051 28.35430374 -51.12627575 26.19273048 -47.5 24 C-40.98401843 20.0718161 -34.45130319 16.17212406 -27.91021729 12.28591919 C-26.69161729 11.56149363 -25.47346704 10.83631091 -24.25579834 10.11032104 C-22.53501672 9.084547 -20.8124544 8.06176201 -19.08984375 7.0390625 C-17.58345337 6.1430835 -17.58345337 6.1430835 -16.04663086 5.22900391 C-10.48227178 2.0550827 -6.49021012 0.10334729 0 0 Z M-24.125 15.5625 C-26.39739904 16.94185769 -28.67074239 18.31954815 -30.9453125 19.6953125 C-34.61127892 21.9150754 -38.27493149 24.13841449 -41.93066406 26.375 C-48.1836622 30.19800996 -54.45638888 33.95937685 -60.875 37.5 C-80.72609559 47.35085233 -80.72609559 47.35085233 -93.125 64.5625 C-93.4247703 67.61078324 -93.41876789 70.64682249 -93.41552734 73.70800781 C-93.42224457 74.62087051 -93.42896179 75.53373322 -93.43588257 76.47425842 C-93.45485875 79.48810289 -93.45878685 82.50172453 -93.4609375 85.515625 C-93.4673666 87.61684256 -93.47409505 89.71805922 -93.48110962 91.8192749 C-93.4930821 96.2241015 -93.49679056 100.62884968 -93.49560547 105.03369141 C-93.4954025 110.6636671 -93.52268274 116.29313678 -93.55714989 121.92299271 C-93.57944726 126.26402064 -93.5834421 130.60492745 -93.58238602 134.94600677 C-93.58473854 137.0207366 -93.59354229 139.09546993 -93.60905075 141.17014313 C-93.62876414 144.08025446 -93.62285116 146.9892833 -93.61083984 149.89941406 C-93.62207886 150.74752151 -93.63331787 151.59562897 -93.64489746 152.46943665 C-93.57145726 159.51224623 -91.66064502 165.49251054 -87.13696289 170.96948242 C-81.59631325 175.61168313 -75.87069819 179.35759731 -69.5625 182.875 C-67.44440157 184.08303965 -65.32726685 185.29277008 -63.2109375 186.50390625 C-62.0775293 187.1498877 -60.94412109 187.79586914 -59.77636719 188.46142578 C-53.73345576 191.92401197 -47.75873544 195.5031145 -41.77600098 199.06826782 C-39.02418234 200.70767395 -36.27037969 202.34373135 -33.51660156 203.97984314 C-29.37509292 206.44048088 -25.23425253 208.90223915 -21.09472656 211.36621094 C-18.6689015 212.80933382 -16.24111787 214.24908413 -13.8125 215.6875 C-13.15000244 216.08291992 -12.48750488 216.47833984 -11.80493164 216.88574219 C-7.74428676 219.28508852 -4.67123767 220.70260226 0.0625 220.625 C1.9496875 220.5940625 1.9496875 220.5940625 3.875 220.5625 C3.545 219.9025 3.215 219.2425 2.875 218.5625 C2.215 218.5625 1.555 218.5625 0.875 218.5625 C-0.95256276 213.09169582 -1.42669911 208.28817584 -1.43139648 202.54125977 C-1.43972 201.665513 -1.44804352 200.78976624 -1.45661926 199.88748169 C-1.48059852 197.00957724 -1.48947541 194.13189982 -1.49609375 191.25390625 C-1.5050674 189.2428328 -1.51418938 187.23176 -1.52345276 185.22068787 C-1.53991116 181.01193625 -1.54763746 176.8032639 -1.55053711 172.59448242 C-1.5559257 167.21321674 -1.59363929 161.83269995 -1.63928127 156.45164585 C-1.66908124 152.30024008 -1.67626127 148.14901432 -1.67726326 143.99751091 C-1.68145764 142.01404315 -1.69386041 140.03057447 -1.71478081 138.0472126 C-1.74176371 135.26863114 -1.73685006 132.49178217 -1.72436523 129.71313477 C-1.73919952 128.90197708 -1.75403381 128.0908194 -1.76931763 127.25508118 C-1.67974472 120.22247645 1.05017171 115.36468308 6.00683594 110.44775391 C6.70067383 109.94163574 7.39451172 109.43551758 8.109375 108.9140625 C8.88990234 108.34461914 9.67042969 107.77517578 10.47460938 107.18847656 C14.27288793 104.6155987 18.15955323 102.24256369 22.125 99.9375 C23.89270405 98.89324121 25.65960565 97.84762308 27.42578125 96.80078125 C28.32635254 96.26791504 29.22692383 95.73504883 30.15478516 95.18603516 C34.57208833 92.54960847 38.94311975 89.83988311 43.3125 87.125 C44.17294922 86.59116699 45.03339844 86.05733398 45.91992188 85.50732422 C49.51434896 83.27586213 53.10669581 81.04107869 56.69775391 78.80419922 C58.59103809 77.62506844 60.48483252 76.44675651 62.37915039 75.26928711 C64.1490513 74.16913798 65.91785502 73.06722077 67.68530273 71.96313477 C71.67291347 69.4853999 75.68107918 67.04194138 79.73828125 64.6796875 C80.43993408 64.26831543 81.14158691 63.85694336 81.86450195 63.43310547 C85.07796752 62.04157927 87.59813708 62.62625345 90.875 63.5625 C91.535 63.8925 92.195 64.2225 92.875 64.5625 C92.42589729 59.62237016 90.23407036 56.08167351 86.875 52.5625 C82.8896295 49.63458872 78.64688012 47.16795811 74.375 44.6875 C73.12946048 43.94958442 71.8846824 43.21038226 70.640625 42.4699707 C67.38323656 40.53659673 64.11535036 38.62179047 60.84375 36.71258545 C57.65204913 34.84808832 54.46719543 32.97196429 51.28125 31.09765625 C47.6004206 28.93387327 43.91776609 26.77335313 40.22875977 24.62353516 C34.71147763 21.40758552 29.20687048 18.17482224 23.74609375 14.86328125 C22.35680664 14.02083862 22.35680664 14.02083862 20.93945312 13.16137695 C19.24391124 12.12939705 17.5509962 11.09308297 15.86132812 10.05151367 C15.12205078 9.60138916 14.38277344 9.15126465 13.62109375 8.6875 C12.98872803 8.29820313 12.3563623 7.90890625 11.70483398 7.5078125 C-1.54211645 0.66429121 -13.043379 8.71920695 -24.125 15.5625 Z " fill="#283037" transform="translate(112.125,0.4375)"/>
<path d="M0 0 C0 2.31 0 4.62 0 7 C3.465 6.505 3.465 6.505 7 6 C8 9 8 9 7.625 11.5 C5.38040774 14.95321887 2.9748381 15.15540093 -0.86328125 16.26171875 C-3.16390459 16.90496534 -3.16390459 16.90496534 -5.125 18.875 C-6.25285889 21.61408588 -5.85245181 23.21015772 -5 26 C-4.11248047 26.02126953 -4.11248047 26.02126953 -3.20703125 26.04296875 C0.93222228 26.2928095 3.50301949 26.68558376 7.0625 28.9375 C9.84579832 33.33690702 9.8411983 36.92965795 9 42 C7.64125566 46.03484993 5.963481 49.11910309 2.8125 52 C0.03730366 55.06228562 0.2709719 57.93542149 0 62 C-1.65 62.66 -3.3 63.32 -5 64 C-5 62.02 -5 60.04 -5 58 C-7.64 58.33 -10.28 58.66 -13 59 C-13.74745486 56.3091625 -14.1930237 54.5812278 -13.30078125 51.89453125 C-12 50 -12 50 -9.94140625 49.27734375 C-9.15636719 49.16519531 -8.37132812 49.05304688 -7.5625 48.9375 C-4.04190851 48.42130125 -2.18414475 47.90314893 0 45 C0.73041853 41.38976901 0.73041853 41.38976901 1 38 C0.16855469 37.82984375 -0.66289062 37.6596875 -1.51953125 37.484375 C-2.60621094 37.24203125 -3.69289062 36.9996875 -4.8125 36.75 C-5.89144531 36.51796875 -6.97039062 36.2859375 -8.08203125 36.046875 C-11.3628481 34.86982156 -12.36984105 34.03700846 -14 31 C-14.88381725 23.42442357 -12.42710116 18.73400178 -8.375 12.5 C-7.92125 12.005 -7.4675 11.51 -7 11 C-6.34 11 -5.68 11 -5 11 C-5.0825 9.741875 -5.165 8.48375 -5.25 7.1875 C-5.27075053 3.27948441 -5.27075053 3.27948441 -3.0625 1 C-1 0 -1 0 0 0 Z " fill="#F7F7F7" transform="translate(142,124)"/>
<path d="M0 0 C0.484375 2.66796875 0.484375 2.66796875 0 6 C-2.28670128 8.25636749 -4.96731747 9.73580704 -7.75 11.3125 C-8.84441406 11.97475586 -8.84441406 11.97475586 -9.9609375 12.65039062 C-13.29390802 14.62896313 -16.18152186 16.19502066 -20 17 C-20.5546875 14.3671875 -20.5546875 14.3671875 -20 11 C-17.33988876 8.54704786 -14.272789 6.88279416 -11.125 5.125 C-10.28324219 4.62742188 -9.44148437 4.12984375 -8.57421875 3.6171875 C-2.36338856 0 -2.36338856 0 0 0 Z " fill="#4AA126" transform="translate(180,163)"/>
</svg>
