<?xml version="1.0" encoding="UTF-8"?>
<svg version="1.1" xmlns="http://www.w3.org/2000/svg" width="225" height="225">
<path d="M0 0 C1.31426847 0.25795537 2.62871616 0.51499911 3.94332886 0.77119446 C7.39112001 1.44566672 10.83633165 2.13250048 14.28112793 2.82208252 C17.70024365 3.50424502 21.12169312 4.17447359 24.54296875 4.84570312 C29.88526656 5.89495027 35.22506937 6.95605054 40.56347656 8.02490234 C45.58158704 9.02803422 50.60362097 10.00441696 55.63183594 10.95556641 C56.78118622 11.17614212 57.9305365 11.39671783 59.11471558 11.62397766 C61.25364297 12.03391457 63.39398152 12.43658441 65.53591919 12.83049011 C74.83213993 14.62989736 74.83213993 14.62989736 78.2421875 17.55078125 C80.05912005 21.23920905 80.49447554 24.22549002 80.50288391 28.31272888 C80.50996872 29.46367035 80.51705353 30.61461182 80.52435303 31.8004303 C80.52187561 33.05407883 80.51939819 34.30772736 80.5168457 35.59936523 C80.52119546 36.94010705 80.5263795 38.28084638 80.53233337 39.62158203 C80.54570602 43.25589852 80.54630401 46.89011091 80.54377007 50.5244472 C80.54269922 53.56121215 80.54758663 56.59795612 80.5523755 59.63471657 C80.5634646 66.80019488 80.5639114 73.96562077 80.55786133 81.13110352 C80.55182066 88.5173509 80.56413619 95.90340783 80.5854314 103.28962272 C80.60305736 109.63712318 80.60904721 115.98456307 80.60579365 122.3320871 C80.60398229 126.12057269 80.60660221 129.90892241 80.62050819 133.69738579 C80.63309827 137.26055897 80.63113153 140.8234356 80.61809731 144.38660431 C80.61461031 146.31294531 80.62590073 148.23929541 80.63766479 150.16560364 C80.56831192 161.57322971 80.56831192 161.57322971 77.2421875 165.55078125 C72.36311016 168.29406233 66.71995723 169.24372324 61.26904297 170.25244141 C60.14057953 170.47014442 60.14057953 170.47014442 58.98931885 170.69224548 C56.53057177 171.16484981 54.07006008 171.62744603 51.609375 172.08984375 C49.88628924 172.41886679 48.16331935 172.7484972 46.44046021 173.07870483 C41.92307735 173.94274616 37.40410746 174.79818971 32.88476562 175.6519165 C28.29061089 176.52152726 23.6981504 177.39999329 19.10546875 178.27734375 C12.38996304 179.55843584 5.67404896 180.83734441 -1.04345703 182.10791016 C-2.08628342 182.30583916 -2.08628342 182.30583916 -3.150177 182.50776672 C-17.17813173 185.15553236 -28.57383196 184.09384435 -42.48046875 181.33984375 C-44.19324426 181.00755349 -45.90617354 180.67605495 -47.61924744 180.3453064 C-52.10704716 179.47648558 -56.5925539 178.59634186 -61.07769775 177.71392822 C-64.7264025 176.99799121 -68.37661313 176.28992617 -72.02694035 175.58231544 C-113.15255077 167.60979121 -113.15255077 167.60979121 -116.7578125 164.55078125 C-118.4001486 160.50017947 -119.00947959 157.05913151 -119.01850891 152.70654297 C-119.02913612 150.99069 -119.02913612 150.99069 -119.03997803 149.24017334 C-119.03750061 147.99947083 -119.03502319 146.75876831 -119.0324707 145.48046875 C-119.03758163 144.16274475 -119.04269257 142.84502075 -119.04795837 141.48736572 C-119.06131385 137.8840989 -119.06193104 134.28093719 -119.05939507 130.67765045 C-119.05832327 127.66568856 -119.06321394 124.65374775 -119.0680005 121.64179039 C-119.07908318 114.535266 -119.07953971 107.42879447 -119.07348633 100.32226562 C-119.06744328 92.99791285 -119.0797687 85.67375202 -119.1010564 78.34943199 C-119.11868212 72.05286627 -119.12467233 65.75636159 -119.12141865 59.45977211 C-119.1196076 55.70260011 -119.12222433 51.94556512 -119.13613319 48.18841553 C-119.15106256 43.99918173 -119.14173297 39.81033805 -119.13012695 35.62109375 C-119.13777069 34.38039124 -119.14541443 33.13968872 -119.15328979 31.86138916 C-119.08706995 21.06218312 -119.08706995 21.06218312 -115.7578125 16.55078125 C-109.38511197 13.34758163 -102.3919118 12.32617315 -95.421875 11.02734375 C-93.6335878 10.68526382 -93.6335878 10.68526382 -91.80917358 10.33627319 C-88.00161439 9.60947167 -84.19229672 8.8924169 -80.3828125 8.17578125 C-77.89310465 7.70247741 -75.40352011 7.22852448 -72.9140625 6.75390625 C-69.20098482 6.04615129 -65.487589 5.34044812 -61.77276611 4.64190674 C-55.6719841 3.49417704 -49.57874814 2.32063732 -43.49511719 1.08496094 C-42.33273529 0.85191254 -41.17035339 0.61886414 -39.9727478 0.37875366 C-37.80076188 -0.05804457 -35.63036056 -0.50283965 -33.46206665 -0.95761108 C-21.73629596 -3.29806441 -11.66716175 -2.35832776 0 0 Z " fill="#FC571B" transform="translate(131.7578125,21.44921875)"/>
<path d="M0 0 C0 61.71 0 123.42 0 187 C-6.10233286 186.38976671 -11.74026024 185.78057646 -17.69360352 184.63305664 C-18.3926178 184.49957321 -19.09163208 184.36608978 -19.81182861 184.2285614 C-22.08503021 183.79335224 -24.35696191 183.35187743 -26.62890625 182.91015625 C-28.2296638 182.60214256 -29.83049011 182.29448608 -31.43138123 181.98716736 C-34.77110458 181.34512822 -38.11025766 180.7002305 -41.44897461 180.05297852 C-45.7068571 179.22756209 -49.96567927 178.4071288 -54.22488499 177.58857059 C-58.318226 176.80166294 -62.41108197 176.01224632 -66.50390625 175.22265625 C-67.65768863 175.0003921 -67.65768863 175.0003921 -68.83477974 174.77363777 C-93.4280767 170.0307228 -93.4280767 170.0307228 -97 167 C-98.6423361 162.94939822 -99.25166709 159.50835026 -99.26069641 155.15576172 C-99.27132362 153.43990875 -99.27132362 153.43990875 -99.28216553 151.68939209 C-99.27968811 150.44868958 -99.27721069 149.20798706 -99.2746582 147.9296875 C-99.27976913 146.6119635 -99.28488007 145.2942395 -99.29014587 143.93658447 C-99.30350135 140.33331765 -99.30411854 136.73015594 -99.30158257 133.1268692 C-99.30051077 130.11490731 -99.30540144 127.1029665 -99.310188 124.09100914 C-99.32127068 116.98448475 -99.32172721 109.87801322 -99.31567383 102.77148438 C-99.30963078 95.4471316 -99.3219562 88.12297077 -99.3432439 80.79865074 C-99.36086962 74.50208502 -99.36685983 68.20558034 -99.36360615 61.90899086 C-99.3617951 58.15181886 -99.36441183 54.39478387 -99.37832069 50.63763428 C-99.39325006 46.44840048 -99.38392047 42.2595568 -99.37231445 38.0703125 C-99.37995819 36.82960999 -99.38760193 35.58890747 -99.39547729 34.31060791 C-99.32925745 23.51140187 -99.32925745 23.51140187 -96 19 C-89.62729947 15.79680038 -82.6340993 14.7753919 -75.6640625 13.4765625 C-73.8757753 13.13448257 -73.8757753 13.13448257 -72.05136108 12.78549194 C-68.24380189 12.05869042 -64.43448422 11.34163565 -60.625 10.625 C-58.13529215 10.15169616 -55.64570761 9.67774323 -53.15625 9.203125 C-48.21868872 8.2623401 -43.28008443 7.32730715 -38.34082031 6.39550781 C-33.39880429 5.46070086 -28.46128634 4.50574544 -23.52636719 3.53417969 C-22.33691498 3.30113129 -21.14746277 3.06808289 -19.92196655 2.82797241 C-17.67285199 2.38638355 -15.42445222 1.94113274 -13.1769104 1.49160767 C-11.67080704 1.19677994 -11.67080704 1.19677994 -10.13427734 0.89599609 C-8.82250015 0.63548965 -8.82250015 0.63548965 -7.48422241 0.36972046 C-5 0 -5 0 0 0 Z " fill="#1B1E25" transform="translate(112,19)"/>
<path d="M0 0 C7.63782701 0.59897195 15.05398674 1.84977888 22.56640625 3.328125 C24.35400612 3.67444977 24.35400612 3.67444977 26.17771912 4.027771 C29.97347982 4.76429861 33.76797901 5.50711502 37.5625 6.25 C40.05135497 6.73347114 42.54028672 7.21654718 45.02929688 7.69921875 C49.94561485 8.65360203 54.8603029 9.61582567 59.77392578 10.58398438 C64.59155976 11.53267468 69.41273706 12.45898478 74.23779297 13.36914062 C76.50099329 13.80329823 78.76417763 14.23753913 81.02734375 14.671875 C82.06419815 14.86299866 83.10105255 15.05412231 84.16932678 15.2510376 C93.605623 17.08210926 93.605623 17.08210926 97 20 C98.82893961 23.70616573 99.24803952 26.69444404 99.24050903 30.80232239 C99.24325836 31.96193481 99.24600769 33.12154724 99.24884033 34.31629944 C99.2380545 36.21091164 99.2380545 36.21091164 99.22705078 38.14379883 C99.22648632 39.49427278 99.22680391 40.84474735 99.22793579 42.19522095 C99.22850894 45.85395309 99.21676077 49.51255373 99.20278788 53.17125535 C99.19027424 56.99760154 99.18910952 60.82395084 99.18673706 64.65031433 C99.18052415 71.89274216 99.1641159 79.13510951 99.14403808 86.37751073 C99.12167319 94.62413599 99.11068417 102.87076416 99.10064721 111.11741221 C99.0797495 128.07830977 99.04457721 145.03914849 99 162 C89.22908519 167.09769665 76.89368951 168.51774362 66.1875 170.8125 C65.13143555 171.04364502 64.07537109 171.27479004 62.98730469 171.51293945 C61.99504883 171.72136475 61.00279297 171.92979004 59.98046875 172.14453125 C59.09254639 172.33378174 58.20462402 172.52303223 57.28979492 172.71801758 C55 173 55 173 52 172 C58.75 170 58.75 170 61 170 C60.67 168.68 60.34 167.36 60 166 C58.35 166.33 56.7 166.66 55 167 C55.495 163.04 55.495 163.04 56 159 C52.37 159 48.74 159 45 159 C43.38460619 136.65371898 43.38460619 136.65371898 46.91015625 131.34375 C49.4624837 128.66124201 52.14591302 126.3553145 55 124 C56.71053433 122.03738693 58.37912842 120.03729062 60 118 C60.721875 117.113125 61.44375 116.22625 62.1875 115.3125 C64.09906631 112.93448841 64.09906631 112.93448841 66 110 C59.07 110 52.14 110 45 110 C45 101.75 45 93.5 45 85 C32.79 85 20.58 85 8 85 C14.72851418 77.15006679 14.72851418 77.15006679 17.41918945 74.83227539 C18.01602036 74.30883041 18.61285126 73.78538544 19.22776794 73.24607849 C19.84998734 72.70209915 20.47220673 72.15811981 21.11328125 71.59765625 C38.49509838 57.27614279 38.49509838 57.27614279 46.45385742 37.32202148 C46.34093869 32.74409321 45.89571923 28.49533859 45 24 C48.63 24 52.26 24 56 24 C59.13208014 46.85258471 59.13208014 46.85258471 53.93896484 55.38720703 C48.59079685 62.19095515 41.76768105 67.68253632 35 73 C41.93 73.33 48.86 73.66 56 74 C56.66 72.35 57.32 70.7 58 69 C57.34 69 56.68 69 56 69 C55.505 70.485 55.505 70.485 55 72 C51.04 71.67 47.08 71.34 43 71 C43 70.67 43 70.34 43 70 C45.475 69.505 45.475 69.505 48 69 C47.67 68.34 47.34 67.68 47 67 C47.93601246 65.58235006 48.8738792 64.16592432 49.8125 62.75 C50.33457031 61.96109375 50.85664063 61.1721875 51.39453125 60.359375 C52.87134122 58.18907519 54.40689873 56.08586232 56 54 C56.33 54.99 56.66 55.98 57 57 C57.66 55.35 58.32 53.7 59 52 C59.66 52 60.32 52 61 52 C60.98428955 51.03344482 60.98428955 51.03344482 60.96826172 50.04736328 C60.92619326 47.07328331 60.90051454 44.09926628 60.875 41.125 C60.85824219 40.11179688 60.84148437 39.09859375 60.82421875 38.0546875 C60.78630496 32.14013661 61.22928516 26.72403421 62.56689453 20.95654297 C63.07204353 19.00852957 63.07204353 19.00852957 63 17 C61.98679688 16.87882812 60.97359375 16.75765625 59.9296875 16.6328125 C58.5780849 16.46386217 57.22652458 16.29457331 55.875 16.125 C54.87726563 16.00705078 54.87726563 16.00705078 53.859375 15.88671875 C49.6784261 15.35385271 45.95925704 14.41777109 42 13 C36.52520192 11.27283156 31.16596708 10.33875716 25.5 9.5625 C16.92583202 8.3377324 8.46996256 6.809492 0 5 C0 3.35 0 1.7 0 0 Z " fill="#FC6F10" transform="translate(113,19)"/>
<path d="M0 0 C3.63 0 7.26 0 11 0 C14.13208014 22.85258471 14.13208014 22.85258471 8.93896484 31.38720703 C3.59079685 38.19095515 -3.23231895 43.68253632 -10 49 C-3.07 49.33 3.86 49.66 11 50 C11 58.25 11 66.5 11 75 C21.89 75 32.78 75 44 75 C44 75.66 44 76.32 44 77 C43.34 77 42.68 77 42 77 C41.66548828 78.05960938 41.66548828 78.05960938 41.32421875 79.140625 C39.71596462 82.61331533 37.44206173 85.03889805 34.8125 87.75 C30.88789527 91.90977511 27.21785625 96.12474112 23.765625 100.69140625 C15.49640288 111.50359712 15.49640288 111.50359712 12 115 C11.84344973 116.48638992 11.74933057 117.97949127 11.68359375 119.47265625 C11.62075195 120.82133789 11.62075195 120.82133789 11.55664062 122.19726562 C11.51732422 123.14279297 11.47800781 124.08832031 11.4375 125.0625 C11.39431641 126.01189453 11.35113281 126.96128906 11.30664062 127.93945312 C11.20020868 130.29278176 11.09956846 132.64637099 11 135 C7.37 135 3.74 135 0 135 C-1.61539381 112.65371898 -1.61539381 112.65371898 1.91015625 107.34375 C4.4624837 104.66124201 7.14591302 102.3553145 10 100 C11.71053433 98.03738693 13.37912842 96.03729062 15 94 C15.721875 93.113125 16.44375 92.22625 17.1875 91.3125 C19.09906631 88.93448841 19.09906631 88.93448841 21 86 C14.07 86 7.14 86 0 86 C0 77.75 0 69.5 0 61 C-12.21 61 -24.42 61 -37 61 C-30.27148582 53.15006679 -30.27148582 53.15006679 -27.58081055 50.83227539 C-26.98397964 50.30883041 -26.38714874 49.78538544 -25.77223206 49.24607849 C-25.15001266 48.70209915 -24.52779327 48.15811981 -23.88671875 47.59765625 C-6.50490162 33.27614279 -6.50490162 33.27614279 1.45385742 13.32202148 C1.34093869 8.74409321 0.89571923 4.49533859 0 0 Z " fill="#FAF8F7" transform="translate(158,43)"/>
<path d="M0 0 C0.33 0 0.66 0 1 0 C1 1.65 1 3.3 1 5 C2.65 5 4.3 5 6 5 C6 63.08 6 121.16 6 181 C32.98383337 176.08808827 32.98383337 176.08808827 59.8828125 170.828125 C63.32605034 170.12621555 66.77771027 169.4867076 70.23608398 168.86425781 C76.4679125 167.73710444 82.65300071 166.46800935 88.8125 165 C89.48893555 164.84595703 90.16537109 164.69191406 90.86230469 164.53320312 C94.36181231 163.66952536 96.76838553 162.92017953 99 160 C98.8125 163.3125 98.8125 163.3125 98 167 C94.74024369 169.41949198 91.75453066 170.49439088 87.79956055 171.25512695 C86.78102997 171.45594879 85.76249939 171.65677063 84.71310425 171.86367798 C83.61539703 172.06979706 82.51768982 172.27591614 81.38671875 172.48828125 C80.23599884 172.71228607 79.08527893 172.93629089 77.89968872 173.16708374 C74.16406268 173.89176525 70.42593343 174.60245634 66.6875 175.3125 C64.13291788 175.80437429 61.57847454 176.2969699 59.02416992 176.7902832 C52.79853063 177.99015591 46.57074336 179.17841688 40.34216309 180.36291504 C36.47854635 181.09939978 32.61654111 181.84399737 28.75486755 182.59059143 C25.77134537 183.16673174 22.78698268 183.73837593 19.80215454 184.30770874 C17.86019786 184.67839529 15.91873948 185.05168935 13.97729492 185.42504883 C12.2657019 185.74638794 12.2657019 185.74638794 10.51953125 186.07421875 C9.56151611 186.25557373 8.60350098 186.43692871 7.61645508 186.6237793 C5 187 5 187 0 187 C0 125.29 0 63.58 0 0 Z " fill="#FB4E22" transform="translate(112,19)"/>
<path d="M0 0 C0.33 0 0.66 0 1 0 C1 7.92 1 15.84 1 24 C8.26 24 15.52 24 23 24 C23.33 25.65 23.66 27.3 24 29 C24.99 29 25.98 29 27 29 C27 27.35 27 25.7 27 24 C31.75 24.875 31.75 24.875 34 26 C32.34170892 29.94558912 29.65299858 32.93429707 26.875 36.125 C25.88431008 37.2776957 24.89473772 38.43135276 23.90625 39.5859375 C23.41640625 40.15795898 22.9265625 40.72998047 22.421875 41.31933594 C19.69384199 44.54388594 17.07958439 47.85848505 14.4609375 51.171875 C13 53 13 53 12 54 C11.84344973 55.48638992 11.74933057 56.97949127 11.68359375 58.47265625 C11.64169922 59.37177734 11.59980469 60.27089844 11.55664062 61.19726562 C11.49766602 62.61555664 11.49766602 62.61555664 11.4375 64.0625 C11.39431641 65.01189453 11.35113281 65.96128906 11.30664062 66.93945312 C11.20020868 69.29278176 11.09956846 71.64637099 11 74 C7.37 74 3.74 74 0 74 C-1.61539381 51.65371898 -1.61539381 51.65371898 1.91015625 46.34375 C4.4624837 43.66124201 7.14591302 41.3553145 10 39 C11.71053433 37.03738693 13.37912842 35.03729062 15 33 C15.721875 32.113125 16.44375 31.22625 17.1875 30.3125 C19.09906631 27.93448841 19.09906631 27.93448841 21 25 C14.07 25 7.14 25 0 25 C0 16.75 0 8.5 0 0 Z " fill="#FBF6F3" transform="translate(158,104)"/>
<path d="M0 0 C0.33 0 0.66 0 1 0 C1 60.06 1 120.12 1 182 C32.52724969 176.14117974 32.52724969 176.14117974 64 170 C66.7225 169.505 69.445 169.01 72.25 168.5 C77.80422526 167.46034848 83.31660363 166.30985115 88.8125 165 C89.48893555 164.84595703 90.16537109 164.69191406 90.86230469 164.53320312 C94.36181231 163.66952536 96.76838553 162.92017953 99 160 C98.8125 163.3125 98.8125 163.3125 98 167 C94.74024369 169.41949198 91.75453066 170.49439088 87.79956055 171.25512695 C86.78102997 171.45594879 85.76249939 171.65677063 84.71310425 171.86367798 C83.61539703 172.06979706 82.51768982 172.27591614 81.38671875 172.48828125 C80.23599884 172.71228607 79.08527893 172.93629089 77.89968872 173.16708374 C74.16406268 173.89176525 70.42593343 174.60245634 66.6875 175.3125 C64.13291788 175.80437429 61.57847454 176.2969699 59.02416992 176.7902832 C52.79853063 177.99015591 46.57074336 179.17841688 40.34216309 180.36291504 C36.47854635 181.09939978 32.61654111 181.84399737 28.75486755 182.59059143 C25.77134537 183.16673174 22.78698268 183.73837593 19.80215454 184.30770874 C17.86019786 184.67839529 15.91873948 185.05168935 13.97729492 185.42504883 C12.2657019 185.74638794 12.2657019 185.74638794 10.51953125 186.07421875 C9.56151611 186.25557373 8.60350098 186.43692871 7.61645508 186.6237793 C5 187 5 187 0 187 C0 125.29 0 63.58 0 0 Z " fill="#AE4319" transform="translate(112,19)"/>
<path d="M0 0 C7.63782701 0.59897195 15.05398674 1.84977888 22.56640625 3.328125 C24.35400612 3.67444977 24.35400612 3.67444977 26.17771912 4.027771 C29.97347982 4.76429861 33.76797901 5.50711502 37.5625 6.25 C40.05135497 6.73347114 42.54028672 7.21654718 45.02929688 7.69921875 C49.94561485 8.65360203 54.8603029 9.61582567 59.77392578 10.58398438 C64.59155976 11.53267468 69.41273706 12.45898478 74.23779297 13.36914062 C76.50099329 13.80329823 78.76417763 14.23753913 81.02734375 14.671875 C82.06419815 14.86299866 83.10105255 15.05412231 84.16932678 15.2510376 C93.26904314 17.01679742 93.26904314 17.01679742 97 20 C97.8125 22.1875 97.8125 22.1875 98 24 C97.01 24 96.02 24 95 24 C95 23.34 95 22.68 95 22 C94.32195312 21.95101562 93.64390625 21.90203125 92.9453125 21.8515625 C86.4940883 21.33332011 80.32254637 20.34710552 74 19 C66.52825988 17.51942477 59.04218893 16.45492641 51.48046875 15.5625 C48.11453494 15.0185107 45.20588846 14.13987145 42 13 C36.52520192 11.27283156 31.16596708 10.33875716 25.5 9.5625 C16.92583202 8.3377324 8.46996256 6.809492 0 5 C0 3.35 0 1.7 0 0 Z " fill="#FC7343" transform="translate(113,19)"/>
<path d="M0 0 C0 1.65 0 3.3 0 5 C-0.66942627 5.10546143 -1.33885254 5.21092285 -2.02856445 5.31958008 C-5.12424095 5.81095307 -8.21833848 6.31167927 -11.3125 6.8125 C-12.8912793 7.0609668 -12.8912793 7.0609668 -14.50195312 7.31445312 C-19.59432537 8.14490152 -24.5470059 9.08794189 -29.5078125 10.515625 C-35.45887924 12.21416646 -41.44153842 13.08465792 -47.5625 13.9375 C-57.51179848 15.39495954 -67.27916136 17.18549185 -77.05419922 19.53417969 C-80.155453 20.27661284 -83.26601824 20.97825278 -86.375 21.6875 C-88.25085448 22.12132164 -90.12600111 22.55823149 -92 23 C-92.75539063 23.15082031 -93.51078125 23.30164063 -94.2890625 23.45703125 C-95.13597656 23.72580078 -95.13597656 23.72580078 -96 24 C-96.33 24.66 -96.66 25.32 -97 26 C-97.75 24.25 -97.75 24.25 -98 22 C-95.26250828 18.63422738 -93.06012255 17.39807089 -88.86499023 16.47338867 C-87.79860321 16.23421722 -86.73221619 15.99504578 -85.6335144 15.74862671 C-83.83492477 15.37805649 -83.83492477 15.37805649 -82 15 C-81.35263508 14.86502232 -80.70527016 14.73004463 -80.03828812 14.59097672 C-74.75379868 13.49337543 -69.45813052 12.45597083 -64.16015625 11.42578125 C-62.46289868 11.0939061 -60.76566916 10.76188748 -59.06846619 10.42973328 C-55.53653925 9.73932924 -52.00415121 9.05134654 -48.47143555 8.36499023 C-43.94907041 7.48605065 -39.42815194 6.59989838 -34.90757084 5.71183491 C-31.41406893 5.02655177 -27.91973221 4.3456058 -24.42513847 3.66591454 C-22.75712001 3.34084211 -21.08938723 3.01430014 -19.4219532 2.68624306 C-17.09733568 2.22944883 -14.77163231 1.77864708 -12.44555664 1.3293457 C-11.76237869 1.19379776 -11.07920074 1.05824982 -10.37532043 0.91859436 C-6.86777118 0.24794057 -3.57171087 -0.14584917 0 0 Z " fill="#45454B" transform="translate(112,19)"/>
<path d="M0 0 C6.44070471 -0.10655578 12.62641289 0.03794912 19 1 C19 1.33 19 1.66 19 2 C16.69 2.33 14.38 2.66 12 3 C10.25602174 10.39192666 9.60644358 17.54522272 9.375 25.125 C9.33632812 26.176875 9.29765625 27.22875 9.2578125 28.3125 C9.16463659 30.87483756 9.07882618 33.43718779 9 36 C8.01 36.495 8.01 36.495 7 37 C6.27840576 38.64363134 5.60648579 40.31050386 5 42 C4.01 42 3.02 42 2 42 C0.29974157 43.88709129 0.29974157 43.88709129 -1.1875 46.3125 C-1.71730469 47.11300781 -2.24710938 47.91351563 -2.79296875 48.73828125 C-4.23541274 51.01383835 -4.23541274 51.01383835 -4 54 C-0.535 54.495 -0.535 54.495 3 55 C3.33 54.34 3.66 53.68 4 53 C4.66 53 5.32 53 6 53 C5.67 55.64 5.34 58.28 5 61 C4.67 60.01 4.34 59.02 4 58 C-3.26 58 -10.52 58 -18 58 C-11.36254203 50.25629904 -11.36254203 50.25629904 -8.16796875 48.01953125 C-2.61256352 43.67506875 2.15705528 39.69380272 3.78222656 32.57226562 C4.67772063 24.38791555 4.51460512 16.20704961 4 8 C3.38511719 8.03480469 2.77023438 8.06960937 2.13671875 8.10546875 C0.92435547 8.14607422 0.92435547 8.14607422 -0.3125 8.1875 C-1.11300781 8.22230469 -1.91351563 8.25710937 -2.73828125 8.29296875 C-5 8 -5 8 -8 5 C-5.03 5 -2.06 5 1 5 C0.67 3.35 0.34 1.7 0 0 Z " fill="#F96614" transform="translate(165,35)"/>
<path d="M0 0 C0.33 0 0.66 0 1 0 C1 7.92 1 15.84 1 24 C8.26 24 15.52 24 23 24 C23.33 25.65 23.66 27.3 24 29 C24.99 29 25.98 29 27 29 C27 27.35 27 25.7 27 24 C31.75 24.875 31.75 24.875 34 26 C32.34170354 29.94560193 29.65297045 32.93425953 26.875 36.125 C25.8856259 37.27640559 24.89735583 38.42876071 23.91015625 39.58203125 C23.42047363 40.1538916 22.93079102 40.72575195 22.42626953 41.31494141 C19.19259785 45.13534571 16.09710016 49.06872387 13 53 C11.91280756 49.73842267 11.70928519 47.41589896 12 44 C15 42 15 42 18 42 C18 40.02 18 38.04 18 36 C17.34 36 16.68 36 16 36 C16 37.32 16 38.64 16 40 C14.35 39.34 12.7 38.68 11 38 C11.9156026 36.77004051 12.83254203 35.54107614 13.75 34.3125 C14.26046875 33.62800781 14.7709375 32.94351563 15.296875 32.23828125 C17.15691824 29.79377488 19.08112103 27.39859871 21 25 C14.07 25 7.14 25 0 25 C0 16.75 0 8.5 0 0 Z " fill="#F7F3EC" transform="translate(158,104)"/>
<path d="M0 0 C9.81043669 -0.31217156 18.787869 0.48321091 28.4375 2.3125 C29.65115234 2.52583984 30.86480469 2.73917969 32.11523438 2.95898438 C38.07658379 4.05206158 43.65326841 5.07529212 49 8 C50.4375 10.6875 50.4375 10.6875 51 13 C50.01 13 49.02 13 48 13 C48 12.34 48 11.68 48 11 C47.32195312 10.95101562 46.64390625 10.90203125 45.9453125 10.8515625 C39.4940883 10.33332011 33.32254637 9.34710552 27 8 C18.37671092 6.29123765 9.71752262 5.10586657 1 4 C0.67 2.68 0.34 1.36 0 0 Z " fill="#FB8A39" transform="translate(160,30)"/>
<path d="M0 0 C0.66 0 1.32 0 2 0 C2 60.06 2 120.12 2 182 C0.02 181.01 -1.96 180.02 -4 179 C-4 178.34 -4 177.68 -4 177 C-2.35 177 -0.7 177 1 177 C0.67 118.59 0.34 60.18 0 0 Z " fill="#05171E" transform="translate(110,24)"/>
<path d="M0 0 C0.33 0.66 0.66 1.32 1 2 C-0.29080836 4.43819357 -1.80070896 6.69721955 -3.31640625 9 C-3.76886719 9.70125 -4.22132813 10.4025 -4.6875 11.125 C-5.12449219 11.78757812 -5.56148437 12.45015625 -6.01171875 13.1328125 C-7.23390138 15.08981604 -7.23390138 15.08981604 -7 18 C-4.69 18.33 -2.38 18.66 0 19 C0.33 18.34 0.66 17.68 1 17 C1.66 17 2.32 17 3 17 C2.67 19.64 2.34 22.28 2 25 C1.67 24.01 1.34 23.02 1 22 C-6.26 22 -13.52 22 -21 22 C-14.25 14.125 -14.25 14.125 -11.1328125 11.03515625 C-10.47539062 10.38095703 -9.81796875 9.72675781 -9.140625 9.05273438 C-8.47546875 8.39595703 -7.8103125 7.73917969 -7.125 7.0625 C-6.43664062 6.37865234 -5.74828125 5.69480469 -5.0390625 4.99023438 C-3.36166489 3.32448536 -1.68196209 1.6611378 0 0 Z " fill="#F45C12" transform="translate(168,71)"/>
<path d="M0 0 C0.33 0 0.66 0 1 0 C0.8125 3.3125 0.8125 3.3125 0 7 C-3.44379084 9.58987246 -6.6979126 10.59060597 -10.88671875 11.421875 C-11.98951172 11.64230469 -13.09230469 11.86273438 -14.22851562 12.08984375 C-15.36998047 12.30769531 -16.51144531 12.52554688 -17.6875 12.75 C-18.84056641 12.98332031 -19.99363281 13.21664062 -21.18164062 13.45703125 C-29.73487542 15.13256229 -29.73487542 15.13256229 -32 14 C-31.3203125 12.09375 -31.3203125 12.09375 -30 10 C-27.7421875 9.09375 -27.7421875 9.09375 -24.875 8.5 C-23.8128125 8.2628125 -22.750625 8.025625 -21.65625 7.78125 C-20.4496875 7.5234375 -19.243125 7.265625 -18 7 C-15.11929704 6.3562675 -12.2466784 5.68271315 -9.375 5 C-8.67616699 4.84595703 -7.97733398 4.69191406 -7.25732422 4.53320312 C-2.8461439 3.51359876 -2.8461439 3.51359876 0 0 Z " fill="#B65514" transform="translate(210,179)"/>
<path d="M0 0 C-4.48317198 0.85916038 -8.96722267 1.71351856 -13.45214844 2.56347656 C-14.97713803 2.85317922 -16.50188104 3.14418311 -18.02636719 3.43652344 C-20.2200642 3.8569582 -22.41461095 4.27267623 -24.609375 4.6875 C-25.2886908 4.81874268 -25.96800659 4.94998535 -26.66790771 5.08520508 C-29.87267854 5.68638311 -32.71928788 6 -36 6 C-36 4.35 -36 2.7 -36 1 C-32.37909722 0.28967286 -28.75290619 -0.38893654 -25.125 -1.0625 C-23.60519531 -1.36124023 -23.60519531 -1.36124023 -22.0546875 -1.66601562 C-14.57031059 -3.03335372 -6.62372634 -4.41581756 0 0 Z " fill="#C4502F" transform="translate(149,200)"/>
<path d="M0 0 C0.99 0.33 1.98 0.66 3 1 C3.66 0.67 4.32 0.34 5 0 C5.85695967 5.88400655 6.12539234 11.55909292 6.0625 17.5 C6.05798828 18.32242188 6.05347656 19.14484375 6.04882812 19.9921875 C6.03718489 21.99482396 6.01925556 23.99742227 6 26 C9.63 26 13.26 26 17 26 C16.67 27.65 16.34 29.3 16 31 C11 31 6 31 1 31 C1 29.68 1 28.36 1 27 C1.99 27 2.98 27 4 27 C3.67 20.07 3.34 13.14 3 6 C2.34 6.66 1.68 7.32 1 8 C-0.35439668 5.29120665 -0.06501451 2.99066732 0 0 Z " fill="#F85E0F" transform="translate(152,152)"/>
<path d="M0 0 C11.22 0 22.44 0 34 0 C34 1.32 34 2.64 34 4 C22.12 4 10.24 4 -2 4 C-1.34 2.68 -0.68 1.36 0 0 Z " fill="#B03506" transform="translate(124,104)"/>
<path d="M0 0 C0.66 0 1.32 0 2 0 C2.95468258 6.37457348 3.1202324 12.56061653 3.0625 19 C3.05798828 19.96550781 3.05347656 20.93101563 3.04882812 21.92578125 C3.03715417 24.28392089 3.02078021 26.64192602 3 29 C0.69 29 -1.62 29 -4 29 C-4.0291544 25.60418484 -4.04685068 22.20840214 -4.0625 18.8125 C-4.07087891 17.85279297 -4.07925781 16.89308594 -4.08789062 15.90429688 C-4.09111328 14.97294922 -4.09433594 14.04160156 -4.09765625 13.08203125 C-4.10289307 12.22843018 -4.10812988 11.3748291 -4.11352539 10.49536133 C-3.99579323 7.90753253 -3.57107044 5.52338047 -3 3 C-2.34 3.66 -1.68 4.32 -1 5 C-0.67 3.35 -0.34 1.7 0 0 Z " fill="#FB610D" transform="translate(173,88)"/>
<path d="M0 0 C0.66 0 1.32 0 2 0 C1.42676569 3.86933162 -0.38953552 6.15222057 -3 9 C-3.66 9 -4.32 9 -5 9 C-5.11408203 9.59474121 -5.22816406 10.18948242 -5.34570312 10.80224609 C-6.04900706 13.16461252 -6.85439677 14.32793836 -8.46875 16.1640625 C-8.95730469 16.72867188 -9.44585937 17.29328125 -9.94921875 17.875 C-10.71685547 18.74125 -10.71685547 18.74125 -11.5 19.625 C-15.12159946 23.55225501 -15.12159946 23.55225501 -18 28 C-18.66 28 -19.32 28 -20 28 C-20 28.66 -20 29.32 -20 30 C-20.66 30 -21.32 30 -22 30 C-22.226875 30.70125 -22.45375 31.4025 -22.6875 32.125 C-24.3268081 35.71586536 -26.34963697 38.07780486 -29 41 C-29.33 41 -29.66 41 -30 41 C-30.26992649 38.06136636 -30.34768081 36.5010987 -28.63671875 34.03515625 C-27.67185547 33.05869141 -27.67185547 33.05869141 -26.6875 32.0625 C-23.06176151 28.21896096 -19.78036686 24.24415064 -16.5625 20.0625 C-12.5060915 14.82050238 -8.29189375 9.84570847 -3.77734375 4.98828125 C-1.84606455 2.92181037 -1.84606455 2.92181037 0 0 Z " fill="#B24B13" transform="translate(199,122)"/>
<path d="M0 0 C0.33 0 0.66 0 1 0 C1 7.92 1 15.84 1 24 C8.26 24 15.52 24 23 24 C23.33 25.65 23.66 27.3 24 29 C24.99 29 25.98 29 27 29 C27 27.35 27 25.7 27 24 C31.75 24.875 31.75 24.875 34 26 C32.33248852 29.94139078 29.77289351 32.7892812 27 36 C26.67 35.01 26.34 34.02 26 33 C22.7 32.67 19.4 32.34 16 32 C17.65 29.69 19.3 27.38 21 25 C14.07 25 7.14 25 0 25 C0 16.75 0 8.5 0 0 Z " fill="#EFD8CE" transform="translate(158,104)"/>
<path d="M0 0 C1.41502491 4.24507474 1.04345413 8.4208588 0.9609375 12.84375 C0.91014984 17.34692282 1.25548536 21.55617826 2 26 C1.34 26.33 0.68 26.66 0 27 C0 25.02 0 23.04 0 21 C-0.66 21 -1.32 21 -2 21 C-2 23.31 -2 25.62 -2 28 C-3.32 28.33 -4.64 28.66 -6 29 C-5.97708966 25.29032102 -5.8996317 21.5836826 -5.8125 17.875 C-5.80669922 16.82828125 -5.80089844 15.7815625 -5.79492188 14.703125 C-5.54631696 5.97433036 -5.54631696 5.97433036 -2.44921875 2.2578125 C-1.23685547 1.14019531 -1.23685547 1.14019531 0 0 Z " fill="#F86716" transform="translate(174,157)"/>
<path d="M0 0 C0.66 0 1.32 0 2 0 C2.495 2.475 2.495 2.475 3 5 C3.66 5 4.32 5 5 5 C6.41687119 9.25061356 5.19320039 11.71851625 4 16 C2.68 16 1.36 16 0 16 C-0.99 16.66 -1.98 17.32 -3 18 C-3 14.8491642 -2.78032409 12.92621532 -2 10 C-2 9.34 -2 8.68 -2 8 C-1.34 8 -0.68 8 0 8 C0 7.34 0 6.68 0 6 C-10.89 6 -21.78 6 -33 6 C-33 5.67 -33 5.34 -33 5 C-25.41 4.67 -17.82 4.34 -10 4 C-10 3.67 -10 3.34 -10 3 C-8.54176788 2.9729957 -7.08339325 2.95360213 -5.625 2.9375 C-4.81289062 2.92589844 -4.00078125 2.91429688 -3.1640625 2.90234375 C-1 3 -1 3 1 4 C0.505 2.02 0.505 2.02 0 0 Z " fill="#F87722" transform="translate(202,112)"/>
<path d="M0 0 C6.10288214 0.54787237 12.01887895 1.76245602 18 3.0625 C18.87011719 3.24876953 19.74023438 3.43503906 20.63671875 3.62695312 C22.75846252 4.0816125 24.87932571 4.54037805 27 5 C27 5.99 27 6.98 27 8 C26.34 8 25.68 8 25 8 C25 7.34 25 6.68 25 6 C24.34 6.66 23.68 7.32 23 8 C14.63450696 8.26220202 5.90105002 6.72945364 -2 4 C-2.66 3.34 -3.32 2.68 -4 2 C-3.01 1.67 -2.02 1.34 -1 1 C-0.67 0.67 -0.34 0.34 0 0 Z " fill="#141517" transform="translate(76,195)"/>
<path d="M0 0 C9.08083565 0.0730852 18.13028034 2.23050762 27 4 C26.360625 4.309375 25.72125 4.61875 25.0625 4.9375 C23.06389179 5.8345163 23.06389179 5.8345163 22 7 C15.35478044 7.32154288 8.34089719 7.20372165 2 5 C0.1796875 2.921875 0.1796875 2.921875 -1 1 C-0.67 0.67 -0.34 0.34 0 0 Z " fill="#0A0B0E" transform="translate(21,185)"/>
<path d="M0 0 C9.77090067 1.27970194 19.35933823 2.97465089 29 5 C29 5.33 29 5.66 29 6 C26.69 6.33 24.38 6.66 22 7 C22 7.33 22 7.66 22 8 C14.65081658 8.43230491 8.09784913 6.81774185 1 5 C1.66 4.34 2.32 3.68 3 3 C2.01 2.01 1.02 1.02 0 0 Z " fill="#FA8A5A" transform="translate(141,24)"/>
<path d="M0 0 C14.78132118 -0.3690205 14.78132118 -0.3690205 21 2 C21 3.32 21 4.64 21 6 C7.3667426 5.03644647 7.3667426 5.03644647 1 4 C0.67 2.68 0.34 1.36 0 0 Z " fill="#FA8E50" transform="translate(160,30)"/>
<path d="M0 0 C6.93 0 13.86 0 21 0 C20.34 1.32 19.68 2.64 19 4 C12.73 4 6.46 4 0 4 C0 2.68 0 1.36 0 0 Z " fill="#B6450D" transform="translate(158,129)"/>
<path d="M0 0 C0.33 0.66 0.66 1.32 1 2 C-1.1426402 6.53735572 -4.34402934 9.65517578 -8 13 C-8.66 13 -9.32 13 -10 13 C-10.2475 13.556875 -10.495 14.11375 -10.75 14.6875 C-12.26346473 17.48740975 -13.77556809 19.71201289 -16 22 C-18.75 22.3125 -18.75 22.3125 -21 22 C-16.61557474 16.74825074 -11.99157907 11.86777527 -7.125 7.0625 C-6.43664062 6.37865234 -5.74828125 5.69480469 -5.0390625 4.99023438 C-3.36166489 3.32448536 -1.68196209 1.6611378 0 0 Z " fill="#B14114" transform="translate(168,71)"/>
<path d="M0 0 C0.99 0.33 1.98 0.66 3 1 C4.40664926 1.14492123 5.8181133 1.24628931 7.23046875 1.31640625 C8.43413086 1.37924805 8.43413086 1.37924805 9.66210938 1.44335938 C10.49548828 1.48267578 11.32886719 1.52199219 12.1875 1.5625 C13.03248047 1.60568359 13.87746094 1.64886719 14.74804688 1.69335938 C16.83184433 1.79931518 18.91590103 1.9001502 21 2 C16.75 8.66071429 16.75 8.66071429 13 10 C13 8.35 13 6.7 13 5 C5.97217958 3.9609283 5.97217958 3.9609283 -1 5 C-1.33 4.34 -1.66 3.68 -2 3 C-1.34 2.01 -0.68 1.02 0 0 Z " fill="#F86012" transform="translate(155,131)"/>
<path d="M0 0 C2.82064379 4.23096568 4.25797423 6.84611301 4.1953125 11.984375 C4.18886719 12.91894531 4.18242187 13.85351562 4.17578125 14.81640625 C4.15902344 15.78449219 4.14226562 16.75257812 4.125 17.75 C4.11597656 18.73355469 4.10695312 19.71710937 4.09765625 20.73046875 C4.07412785 23.15389407 4.04125368 25.57682222 4 28 C3.34 27.34 2.68 26.68 2 26 C1.67 27.65 1.34 29.3 1 31 C0.67 31 0.34 31 0 31 C0 20.77 0 10.54 0 0 Z " fill="#FC5E09" transform="translate(169,41)"/>
<path d="M0 0 C13.86 0.495 13.86 0.495 28 1 C28 1.66 28 2.32 28 3 C18.43 3 8.86 3 -1 3 C-0.67 2.01 -0.34 1.02 0 0 Z " fill="#AF3E13" transform="translate(124,104)"/>
<path d="M0 0 C0.66 0 1.32 0 2 0 C2 5.28 2 10.56 2 16 C0.68 16.33 -0.64 16.66 -2 17 C-2.05398987 14.72942623 -2.09278742 12.45848712 -2.125 10.1875 C-2.14820313 8.92292969 -2.17140625 7.65835938 -2.1953125 6.35546875 C-2 3 -2 3 0 0 Z " fill="#FB600C" transform="translate(171,160)"/>
<path d="M0 0 C3.3 0 6.6 0 10 0 C10 0.66 10 1.32 10 2 C9.34 2 8.68 2 8 2 C7.7525 2.763125 7.505 3.52625 7.25 4.3125 C5.89004442 7.2364045 4.68414174 8.30004356 2 10 C1.67 8.68 1.34 7.36 1 6 C1.66 5.67 2.32 5.34 3 5 C3.33 4.34 3.66 3.68 4 3 C2.02 3.99 2.02 3.99 0 5 C0 3.35 0 1.7 0 0 Z " fill="#F7F2EA" transform="translate(192,118)"/>
<path d="M0 0 C7.09406894 0.58476056 14.01563899 1.63233995 21 3 C21 3.33 21 3.66 21 4 C17.7 4.33 14.4 4.66 11 5 C11 4.34 11 3.68 11 3 C10.01 3.33 9.02 3.66 8 4 C6.60560336 4.06665376 5.20830125 4.08538199 3.8125 4.0625 C1.9253125 4.0315625 1.9253125 4.0315625 0 4 C0 2.68 0 1.36 0 0 Z " fill="#FA9653" transform="translate(181,32)"/>
<path d="M0 0 C3.63 0.33 7.26 0.66 11 1 C11 1.66 11 2.32 11 3 C11.66 3.33 12.32 3.66 13 4 C9.82253509 5.58873246 6.45987798 5.41026221 3 5 C0.5 3.5 0.5 3.5 -1 2 C-0.67 1.34 -0.34 0.68 0 0 Z " fill="#0D0E0F" transform="translate(58,192)"/>
<path d="M0 0 C-3.16240582 2.10827055 -4.50657469 2.33817465 -8.1875 2.625 C-9.08855469 2.69976562 -9.98960938 2.77453125 -10.91796875 2.8515625 C-11.60503906 2.90054688 -12.29210937 2.94953125 -13 3 C-13 1.35 -13 -0.3 -13 -2 C-7.41194975 -3.14301028 -4.75621128 -3.17080752 0 0 Z " fill="#B64122" transform="translate(126,203)"/>
<path d="M0 0 C3.63 0 7.26 0 11 0 C11 1.32 11 2.64 11 4 C7.37 4 3.74 4 0 4 C0 2.68 0 1.36 0 0 Z " fill="#B24010" transform="translate(158,178)"/>
<path d="M0 0 C0.66 0.33 1.32 0.66 2 1 C2 1.99 2 2.98 2 4 C1.34 4 0.68 4 0 4 C-0.33 3.67 -0.66 3.34 -1 3 C-1.33 3.99 -1.66 4.98 -2 6 C-2.66 6 -3.32 6 -4 6 C-4 5.01 -4 4.02 -4 3 C-5.65 2.67 -7.3 2.34 -9 2 C-6.99393569 -2.01212862 -3.70558863 -0.95015093 0 0 Z " fill="#FAFAF9" transform="translate(182,136)"/>
<path d="M0 0 C3.3 0.33 6.6 0.66 10 1 C9.01 1.33 8.02 1.66 7 2 C7 2.66 7 3.32 7 4 C7.66 4.33 8.32 4.66 9 5 C6.03 5 3.06 5 0 5 C0 3.35 0 1.7 0 0 Z " fill="#FA7C5F" transform="translate(113,19)"/>
<path d="M0 0 C1.875 0.9375 1.875 0.9375 3.875 3.9375 C3.30910156 4.05867188 2.74320313 4.17984375 2.16015625 4.3046875 C1.42667969 4.47226562 0.69320313 4.63984375 -0.0625 4.8125 C-1.15884766 5.05613281 -1.15884766 5.05613281 -2.27734375 5.3046875 C-4.33200294 5.76711523 -4.33200294 5.76711523 -5.125 7.9375 C-5.875 6.1875 -5.875 6.1875 -6.125 3.9375 C-3.18336576 -0.0936284 -3.18336576 -0.0936284 0 0 Z " fill="#323138" transform="translate(20.125,37.0625)"/>
<path d="M0 0 C5.60461531 0.42089996 10.72086547 0.91613111 16 3 C15.67 3.66 15.34 4.32 15 5 C14.34 5 13.68 5 13 5 C13 4.34 13 3.68 13 3 C12.34 3.66 11.68 4.32 11 5 C8.875 4.625 8.875 4.625 7 4 C7.33 3.67 7.66 3.34 8 3 C5.03 2.67 2.06 2.34 -1 2 C-0.67 1.34 -0.34 0.68 0 0 Z " fill="#09090B" transform="translate(88,198)"/>
<path d="M0 0 C1.85772162 0.08984301 3.71247985 0.24611861 5.5625 0.4375 C7.08037109 0.59025391 7.08037109 0.59025391 8.62890625 0.74609375 C9.80259766 0.87177734 9.80259766 0.87177734 11 1 C11 1.66 11 2.32 11 3 C7.7 3.33 4.4 3.66 1 4 C0.34 3.01 -0.32 2.02 -1 1 C-0.67 0.67 -0.34 0.34 0 0 Z " fill="#09090C" transform="translate(21,185)"/>
<path d="M0 0 C3.63 0 7.26 0 11 0 C10.67 0.99 10.34 1.98 10 3 C3.9453125 3.9765625 3.9453125 3.9765625 2 4 C1.34 3.34 0.68 2.68 0 2 C0 1.34 0 0.68 0 0 Z " fill="#35363B" transform="translate(70,27)"/>
<path d="M0 0 C0.99 0 1.98 0 3 0 C3 0.66 3 1.32 3 2 C4.65 1.34 6.3 0.68 8 0 C9.66666667 1.66666667 11.33333333 3.33333333 13 5 C3.58997722 4.03644647 3.58997722 4.03644647 -1 3 C-0.67 2.01 -0.34 1.02 0 0 Z " fill="#272828" transform="translate(98,201)"/>
<path d="M0 0 C0.7734375 0.09925781 1.546875 0.19851562 2.34375 0.30078125 C4.5 0.6875 4.5 0.6875 7.5 1.6875 C7.5 2.3475 7.5 3.0075 7.5 3.6875 C2.4697924 3.16212276 -2.51885239 2.58155214 -7.5 1.6875 C-4.19720869 -0.51436088 -3.70802649 -0.51294366 0 0 Z " fill="#2E2F31" transform="translate(30.5,188.3125)"/>
<path d="M0 0 C0 0.66 0 1.32 0 2 C-3 4 -3 4 -5.5625 3.8125 C-8 3 -8 3 -10 0 C-6.42355152 -1.2380014 -3.66305234 -0.74926071 0 0 Z " fill="#4A4A4F" transform="translate(30,36)"/>
<path d="M0 0 C-2.95407908 1.96938605 -4.55211383 2.56901423 -8 3 C-8.99 2.67 -9.98 2.34 -11 2 C-11 1.01 -11 0.02 -11 -1 C-6.74938644 -2.41687119 -4.28148375 -1.19320039 0 0 Z " fill="#FA7745" transform="translate(147,26)"/>
<path d="M0 0 C0.33 0 0.66 0 1 0 C1.33 6.27 1.66 12.54 2 19 C0.68 19.33 -0.64 19.66 -2 20 C-2 19.01 -2 18.02 -2 17 C-1.34 17 -0.68 17 0 17 C0 11.39 0 5.78 0 0 Z " fill="#F76212" transform="translate(156,48)"/>
<path d="M0 0 C3.3 0 6.6 0 10 0 C9.34 1.32 8.68 2.64 8 4 C5.69 4 3.38 4 1 4 C0.67 2.68 0.34 1.36 0 0 Z " fill="#FD7A32" transform="translate(160,30)"/>
<path d="M0 0 C5.28 0 10.56 0 16 0 C14.515 2.475 14.515 2.475 13 5 C12.67 4.34 12.34 3.68 12 3 C11.34 3 10.68 3 10 3 C10 2.34 10 1.68 10 1 C6.7 1 3.4 1 0 1 C0 0.67 0 0.34 0 0 Z " fill="#F9691D" transform="translate(160,133)"/>
<path d="M0 0 C2.875 0.6875 2.875 0.6875 6 2 C7.375 4.625 7.375 4.625 8 7 C7.01 7 6.02 7 5 7 C5 6.34 5 5.68 5 5 C4.01 5 3.02 5 2 5 C1.34 3.35 0.68 1.7 0 0 Z " fill="#F79D55" transform="translate(203,36)"/>
<path d="M0 0 C0.78375 0.04125 1.5675 0.0825 2.375 0.125 C2.375 1.775 2.375 3.425 2.375 5.125 C0.395 5.125 -1.585 5.125 -3.625 5.125 C-3.955 4.135 -4.285 3.145 -4.625 2.125 C-2.625 0.125 -2.625 0.125 0 0 Z " fill="#3D4247" transform="translate(109.625,18.875)"/>
<path d="M0 0 C1.60495567 0.11442461 3.20898119 0.24194694 4.8125 0.375 C5.70582031 0.44460937 6.59914062 0.51421875 7.51953125 0.5859375 C10 1 10 1 13 3 C9.7 3.33 6.4 3.66 3 4 C3 3.01 3 2.02 3 1 C2.01 0.67 1.02 0.34 0 0 Z " fill="#BD552E" transform="translate(136,197)"/>
<path d="M0 0 C1.19882813 0.15275391 1.19882813 0.15275391 2.421875 0.30859375 C3.02515625 0.39238281 3.6284375 0.47617188 4.25 0.5625 C1.89031256 2.65999995 0.70383006 3.53155704 -2.5 3.75 C-3.61375 3.6571875 -3.61375 3.6571875 -4.75 3.5625 C-4.75 2.9025 -4.75 2.2425 -4.75 1.5625 C-6.07 1.2325 -7.39 0.9025 -8.75 0.5625 C-5.62819599 -0.40411363 -3.22916205 -0.42738909 0 0 Z " fill="#B03E0A" transform="translate(160.75,193.4375)"/>
<path d="M0 0 C0 0.66 0 1.32 0 2 C-4.04141194 2.63394697 -7.9065307 3.12404452 -12 3 C-7.91789166 -0.35316042 -5.14839074 -1.65483988 0 0 Z " fill="#131417" transform="translate(52,190)"/>
<path d="M0 0 C0 1.32 0 2.64 0 4 C-4.29 3.67 -8.58 3.34 -13 3 C-13 2.67 -13 2.34 -13 2 C-11.39658445 1.66307215 -9.79223445 1.33058907 -8.1875 1 C-7.29417969 0.814375 -6.40085938 0.62875 -5.48046875 0.4375 C-3 0 -3 0 0 0 Z " fill="#FC7E32" transform="translate(181,32)"/>
<path d="M0 0 C0.66 0 1.32 0 2 0 C1.42647107 3.87132028 -0.48704352 6.08172796 -3 9 C-3.66 8.67 -4.32 8.34 -5 8 C-1.125 1.125 -1.125 1.125 0 0 Z " fill="#B3490A" transform="translate(199,122)"/>
<path d="M0 0 C1.65 0.33 3.3 0.66 5 1 C5 1.99 5 2.98 5 4 C2.36 4.33 -0.28 4.66 -3 5 C-2.01 3.35 -1.02 1.7 0 0 Z " fill="#35353B" transform="translate(59,29)"/>
<path d="M0 0 C4.62 0.66 9.24 1.32 14 2 C14 2.33 14 2.66 14 3 C13.16855469 2.98839844 12.33710938 2.97679687 11.48046875 2.96484375 C9.85044922 2.95130859 9.85044922 2.95130859 8.1875 2.9375 C6.56908203 2.92009766 6.56908203 2.92009766 4.91796875 2.90234375 C1.93487831 2.86375234 1.93487831 2.86375234 -1 4 C-0.67 2.68 -0.34 1.36 0 0 Z " fill="#FB9477" transform="translate(125,21)"/>
<path d="M0 0 C3.63 0 7.26 0 11 0 C11.33 0.66 11.66 1.32 12 2 C7.48281619 3.36884358 4.41225737 2.47075246 0 1 C0 0.67 0 0.34 0 0 Z " fill="#262626" transform="translate(85,200)"/>
<path d="M0 0 C0 0.33 0 0.66 0 1 C-4.29 1.66 -8.58 2.32 -13 3 C-8.46581795 -1.53418205 -6.0622627 -1.02944084 0 0 Z " fill="#BD6C41" transform="translate(191,191)"/>
<path d="M0 0 C1.98 0 3.96 0 6 0 C6 1.65 6 3.3 6 5 C4.02 4.01 2.04 3.02 0 2 C0 1.34 0 0.68 0 0 Z " fill="#05090D" transform="translate(106,201)"/>
<path d="M0 0 C1.98 0 3.96 0 6 0 C6 0.99 6 1.98 6 3 C3.36 3 0.72 3 -2 3 C-1.34 2.67 -0.68 2.34 0 2 C0 1.34 0 0.68 0 0 Z " fill="#AF390D" transform="translate(133,198)"/>
<path d="M0 0 C1 2 1 2 0.375 4.5625 C-1 7 -1 7 -3.625 7.8125 C-4.40875 7.874375 -5.1925 7.93625 -6 8 C-4.02 5.36 -2.04 2.72 0 0 Z " fill="#AC501C" transform="translate(194,128)"/>
<path d="M0 0 C1.98 0 3.96 0 6 0 C6.33 0.99 6.66 1.98 7 3 C5.68 3.33 4.36 3.66 3 4 C2.01 2.68 1.02 1.36 0 0 Z " fill="#B94625" transform="translate(122,200)"/>
<path d="M0 0 C0.66 0.66 1.32 1.32 2 2 C1.01 2.66 0.02 3.32 -1 4 C-0.67 4.66 -0.34 5.32 0 6 C-0.66 6 -1.32 6 -2 6 C-2.33 6.66 -2.66 7.32 -3 8 C-3.75 6.25 -3.75 6.25 -4 4 C-2.0625 1.75 -2.0625 1.75 0 0 Z " fill="#47464D" transform="translate(18,37)"/>
<path d="M0 0 C3.3 0.33 6.6 0.66 10 1 C10 1.33 10 1.66 10 2 C6.7 2.33 3.4 2.66 0 3 C0 2.01 0 1.02 0 0 Z " fill="#F7B078" transform="translate(192,34)"/>
</svg>
