<?xml version="1.0" encoding="UTF-8"?>
<svg version="1.1" xmlns="http://www.w3.org/2000/svg" width="225" height="225">
<path d="M0 0 C74.25 0 148.5 0 225 0 C225 74.25 225 148.5 225 225 C150.75 225 76.5 225 0 225 C0 150.75 0 76.5 0 0 Z " fill="#FEFEFE" transform="translate(0,0)"/>
<path d="M0 0 C11.95082119 4.04561651 21.12667757 5.39973186 33.04296875 0.375 C35.1875 -0.5 35.1875 -0.5 37.1875 -0.5 C35.83677503 2.59542879 34.41875266 4.42118963 31.81640625 6.55859375 C31.15962891 7.10966797 30.50285156 7.66074219 29.82617188 8.22851562 C28.44630247 9.36434416 27.0660961 10.49976347 25.68554688 11.63476562 C19.61169581 16.62836306 19.61169581 16.62836306 16.8515625 23.7890625 C16.83867187 24.55992188 16.82578125 25.33078125 16.8125 26.125 C16.36323527 32.26800757 14.04005749 37.10994362 11.1875 42.5 C10.61 43.593125 10.0325 44.68625 9.4375 45.8125 C5.04232082 51.06229735 -0.09790738 54.28821336 -6.8125 55.5 C-4.81487535 96.16132299 -4.81487535 96.16132299 10.1875 133.5 C10.62360995 127.9153698 10.40138992 123.50422776 8.1875 118.3125 C5.50767402 111.59379345 5.09845904 104.63481979 6.1875 97.5 C10.59634699 89.44906201 17.69103069 86.14644126 26.1875 83.5 C29.125 83.25 29.125 83.25 31.1875 83.5 C32.1875 84.5 32.1875 84.5 32.25 87.0625 C32.229375 87.866875 32.20875 88.67125 32.1875 89.5 C31.67775635 89.7673999 31.1680127 90.0347998 30.64282227 90.31030273 C28.34420784 91.5174623 26.04708995 92.72744223 23.75 93.9375 C22.94755859 94.35837891 22.14511719 94.77925781 21.31835938 95.21289062 C20.55458984 95.61572266 19.79082031 96.01855469 19.00390625 96.43359375 C18.29693604 96.80540771 17.58996582 97.17722168 16.86157227 97.56030273 C15.20821254 98.38912401 15.20821254 98.38912401 14.1875 99.5 C13.55929809 105.57261847 14.59735698 110.12895483 16.6875 115.8125 C19.60097438 123.86159024 20.69966011 131.3973563 17.875 139.625 C16.98470407 144.64303158 18.4300452 146.90909147 20.92578125 151.203125 C23.53710071 155.95685827 23.92301785 161.1650439 23.1875 166.5 C21.31129387 169.00160818 19.94858697 170.11945652 17.1875 171.5 C15.15143031 171.6069164 13.11183607 171.64886956 11.07299805 171.66113281 C9.78793869 171.67074036 8.50287933 171.6803479 7.17887878 171.69024658 C5.76899391 171.69509484 4.35910697 171.6993736 2.94921875 171.703125 C1.50673928 171.70887704 0.06425982 171.71463476 -1.3782196 171.72039795 C-4.40538896 171.73090948 -7.43253175 171.73675086 -10.4597168 171.74023438 C-14.33350702 171.74571357 -18.20694477 171.76972825 -22.08062458 171.79820633 C-25.0618135 171.81685815 -28.04291805 171.82203969 -31.02416039 171.82357025 C-32.4518749 171.82659257 -33.87958808 171.83460694 -35.30724525 171.84775543 C-37.30803061 171.86486396 -39.30896133 171.86108393 -41.30981445 171.85644531 C-42.447397 171.86009094 -43.58497955 171.86373657 -44.7570343 171.86749268 C-48.18165721 171.45560003 -50.06062524 170.54560419 -52.8125 168.5 C-54.88597178 164.35305645 -54.33308105 159.45061094 -53.1640625 155.0703125 C-50.6353371 148.30543172 -46.7780307 142.49560715 -42.8125 136.5 C-27.56361467 112.70304594 -24.48823253 83.2388204 -23.8125 55.5 C-24.575625 55.37238281 -25.33875 55.24476562 -26.125 55.11328125 C-29.66114346 54.30634154 -31.89294043 52.62884552 -34.8125 50.5 C-35.658125 49.96375 -36.50375 49.4275 -37.375 48.875 C-40.99779567 45.34509653 -42.7961483 41.09162194 -44.8125 36.5 C-45.18375 35.65953125 -45.555 34.8190625 -45.9375 33.953125 C-46.795165 31.54859992 -47.03703586 29.71994127 -47.125 27.1875 C-48.18232474 17.44729631 -54.77514394 12.45751835 -61.9987793 6.6237793 C-66.71614258 2.78907227 -66.71614258 2.78907227 -67.8125 -0.5 C-66.20816191 -0.02140759 -64.60403584 0.45789558 -63 0.9375 C-62.10667969 1.20433594 -61.21335937 1.47117187 -60.29296875 1.74609375 C-58.45776945 2.30387873 -56.63216274 2.89344575 -54.8125 3.5 C-45.16748 4.88234814 -37.41842631 2.42135918 -28.50048828 -1.00976562 C-17.98563146 -4.92616593 -10.3738512 -3.77787708 0 0 Z " fill="#020202" transform="translate(127.8125,28.5)"/>
<path d="M0 0 C1.28129288 0.97496933 1.28129288 0.97496933 2.58847046 1.96963501 C6.35862881 4.21343722 8.25438875 4.49676748 12.58447266 4.48583984 C14.51645004 4.49506973 14.51645004 4.49506973 16.48745728 4.50448608 C17.87966635 4.49069133 19.27186827 4.47615745 20.6640625 4.4609375 C22.10321894 4.45855054 23.54237854 4.45764829 24.98153687 4.4581604 C27.98919341 4.45504111 30.99637032 4.43854084 34.00390625 4.41162109 C37.85523628 4.37758092 41.70604178 4.36999477 45.55750465 4.37151146 C48.52581775 4.37096727 51.49401665 4.35999336 54.46229172 4.34550858 C55.88243115 4.33915489 57.30258348 4.33520503 58.72273636 4.33372116 C60.70664386 4.32937661 62.69050245 4.3102771 64.67431641 4.29052734 C66.36592392 4.27909195 66.36592392 4.27909195 68.09170532 4.26742554 C72.1315617 3.89594985 74.15691694 2.84308306 77 0 C76.6655974 3.09322404 76.4404882 4.58887768 74.125 6.75 C70.41673249 8.93133383 67.46573354 9.12981742 63.24682617 9.14526367 C61.47434761 9.15483345 61.47434761 9.15483345 59.6660614 9.16459656 C58.38794083 9.16570938 57.10982025 9.1668222 55.79296875 9.16796875 C54.47968094 9.17129715 53.16639313 9.17462555 51.81330872 9.17805481 C49.03169941 9.18404225 46.25012115 9.18589518 43.46850586 9.18530273 C39.91440038 9.1852013 36.36049551 9.19883613 32.80643749 9.21607494 C29.40611171 9.2299107 26.0058223 9.22928491 22.60546875 9.23046875 C21.33342087 9.23765427 20.06137299 9.24483978 18.7507782 9.25224304 C17.55966934 9.24916641 16.36856049 9.24608978 15.14135742 9.24291992 C14.09783615 9.24434494 13.05431488 9.24576996 11.97917175 9.24723816 C7.95030129 8.91288667 4.41156392 8.03514688 1.125 5.625 C0 4 0 4 0 0 Z " fill="#A9A9A9" transform="translate(74,195)"/>
<path d="M0 0 C0.33 0 0.66 0 1 0 C1.36590252 5.48853773 1.36590252 5.48853773 -0.0703125 7.49609375 C-3.31464581 10.02457214 -7.20516666 11.48753555 -10.99414062 13.04296875 C-13.56165557 14.21715367 -15.6051584 15.19319749 -16.87841797 17.79492188 C-17.52815505 19.9341632 -17.52815505 19.9341632 -18 23 C-18.33 23 -18.66 23 -19 23 C-19.13595863 21.58603027 -19.23243845 20.16823316 -19.3125 18.75 C-19.37050781 17.96109375 -19.42851562 17.1721875 -19.48828125 16.359375 C-19 14 -19 14 -16.90234375 11.890625 C-12.75248232 9.18735053 -8.33144785 7.44615786 -3.765625 5.5625 C-0.85690847 4.29670146 -0.85690847 4.29670146 -0.109375 1.8125 C-0.07328125 1.214375 -0.0371875 0.61625 0 0 Z " fill="#ABABAB" transform="translate(160,114)"/>
<path d="M0 0 C0.86870297 2.42034854 1.12075078 3.6430264 0.28515625 6.11328125 C-3.79056624 13.44437314 -9.35992125 19.28910461 -17 23 C-17.99 23 -18.98 23 -20 23 C-20 21.68 -20 20.36 -20 19 C-19.33613281 18.69707031 -18.67226562 18.39414063 -17.98828125 18.08203125 C-8.84648517 13.74468274 -4.47740894 8.95481789 0 0 Z " fill="#B0B0B0" transform="translate(141,65)"/>
<path d="M0 0 C2.06260551 2.06260551 2.82499969 3.64193483 4.0625 6.25 C7.80167297 13.1402861 13.85760979 16.29645441 21 19 C21 20.32 21 21.64 21 23 C14.06797398 22.07083955 9.2545984 17.43259301 4.625 12.4375 C1.77838409 8.16757614 0 5.2048773 0 0 Z " fill="#ABABAB" transform="translate(83,65)"/>
<path d="M0 0 C-1.52945826 3.93924423 -3.94357229 5.76944153 -7.25 8.3125 C-11.77698474 11.90798198 -15.40855494 15.48767159 -19 20 C-19.66 20.66 -20.32 21.32 -21 22 C-20.8394496 15.577984 -17.39205773 12.24223888 -13 8 C-3.97610922 0 -3.97610922 0 0 0 Z " fill="#A8A8A8" transform="translate(165,32)"/>
<path d="M0 0 C4.39758557 0.87357443 7.15823307 3.27578375 10.5 6.125 C11.06847656 6.58648437 11.63695313 7.04796875 12.22265625 7.5234375 C16.25871133 10.93207799 18.70697571 14.22664994 21 19 C20.75 21.4375 20.75 21.4375 20 23 C19.649375 22.154375 19.29875 21.30875 18.9375 20.4375 C14.89867954 13.2718508 8.41216292 8.60773611 1.94140625 3.69921875 C1.30074219 3.13847656 0.66007812 2.57773437 0 2 C0 1.34 0 0.68 0 0 Z " fill="#ACACAC" transform="translate(60,32)"/>
<path d="M0 0 C4.29 2.31 8.58 4.62 13 7 C13 8.32 13 9.64 13 11 C8.87230593 11.49139215 7.2470284 11.15847105 3.6875 8.875 C1 6 1 6 0 0 Z " fill="#F1F1F1" transform="translate(92,64)"/>
<path d="M0 0 C-0.28015648 3.36187774 -0.77633891 4.76318238 -3.125 7.25 C-6.47336473 9.28813505 -9.12262548 9.69589219 -13 10 C-13.33 8.68 -13.66 7.36 -14 6 C-12.04414675 4.99515796 -10.08523763 3.99626195 -8.125 3 C-6.48917969 2.1646875 -6.48917969 2.1646875 -4.8203125 1.3125 C-2 0 -2 0 0 0 Z " fill="#F4F4F4" transform="translate(133,65)"/>
<path d="M0 0 C0.92606971 2.51525107 1.12369565 3.66543273 0.1796875 6.21875 C-2.38619488 10.70520303 -4.57904806 14.09480301 -9 17 C-8.50340553 12.53064978 -7.10661112 11.10661112 -4 8 C-2.52145292 5.39875954 -1.24171148 2.7211975 0 0 Z " fill="#A6A6A6" transform="translate(141,65)"/>
<path d="M0 0 C-1.50223584 4.20626034 -4.28550034 5.73900021 -8 8 C-7.6641593 4.89347355 -7.40950721 3.39585697 -5.125 1.1875 C-3 0 -3 0 0 0 Z " fill="#B0B0B0" transform="translate(165,32)"/>
<path d="M0 0 C0.6875 1.8125 0.6875 1.8125 1 4 C-0.4375 5.75 -0.4375 5.75 -2 7 C-2.99 6.67 -3.98 6.34 -5 6 C-3.35 4.02 -1.7 2.04 0 0 Z " fill="#A9A9A9" transform="translate(150,195)"/>
</svg>
