<?xml version="1.0" encoding="UTF-8"?>
<svg version="1.1" xmlns="http://www.w3.org/2000/svg" width="359" height="140">
<path d="M0 0 C118.47 0 236.94 0 359 0 C359 46.2 359 92.4 359 140 C240.53 140 122.06 140 0 140 C0 93.8 0 47.6 0 0 Z " fill="#13BF95" transform="translate(0,0)"/>
<path d="M0 0 C9.78134216 5.69253886 18.02716602 13.65816257 21.20703125 24.8671875 C23.06381623 36.20683865 22.29892315 47.05103823 16.13671875 56.96484375 C9.76282649 65.78453188 1.42243975 72.31276305 -9.35546875 74.5390625 C-21.2994335 75.99964217 -31.37165655 74.56556944 -41.32421875 67.40234375 C-48.98315305 61.00960423 -54.18750115 53.3631718 -56.35546875 43.5390625 C-57.57380805 29.94350352 -56.09132624 20.43102391 -47.68359375 9.33203125 C-35.56347923 -3.91352248 -16.11426876 -7.89180331 0 0 Z " fill="#FDFEFE" transform="translate(306.35546875,34.4609375)"/>
<path d="M0 0 C7.63202777 6.33754956 14.36001886 14.59448437 15.53564453 24.73779297 C16.43225798 36.83785845 14.81951599 47.38002927 6.94140625 57.03515625 C-0.24756795 64.87924081 -9.07466276 70.28266884 -19.88671875 71.03515625 C-33.20766313 71.36637973 -42.73310866 68.37429263 -52.5078125 59.08203125 C-60.91283629 49.8533996 -63.31420125 39.02827895 -62.99609375 26.7578125 C-62.19777224 16.55142354 -56.94788763 8.6073666 -49.48046875 1.80078125 C-34.95395822 -10.00355525 -15.21386643 -10.97644726 0 0 Z " fill="#FDFEFE" transform="translate(93.6875,38.1875)"/>
<path d="M0 0 C10.12968352 5.51616429 17.61086206 13.12116466 21.75 23.96484375 C24.77237453 34.22832392 23.0536293 44.27634093 19 54 C13.55628915 63.82846276 4.64108464 70.74702594 -6 74 C-6.62132812 74.19078125 -7.24265625 74.3815625 -7.8828125 74.578125 C-18.22625468 76.6391799 -28.15368901 75.0438713 -37.17578125 69.71484375 C-46.63583278 63.12036123 -52.91946347 54.80010721 -55.578125 43.5546875 C-57.49304567 31.95877899 -55.13012652 22.45478751 -48.75 12.6875 C-37.70781471 -2.10574611 -16.99097585 -7.66033827 0 0 Z " fill="#FDFEFE" transform="translate(196,34)"/>
<path d="M0 0 C0.33 0 0.66 0 1 0 C1 21.12 1 42.24 1 64 C-19.46 64 -39.92 64 -61 64 C-61 63.67 -61 63.34 -61 63 C-60.030625 62.8040625 -59.06125 62.608125 -58.0625 62.40625 C-37.95912782 58.04883142 -22.49663368 48.91585304 -10.68359375 31.7734375 C-8.00700256 27.36420376 -5.92077445 22.77960155 -4 18 C-3.4740625 16.81470703 -3.4740625 16.81470703 -2.9375 15.60546875 C-1.81321277 12.48088716 -1.33966105 9.47331744 -0.875 6.1875 C-0.70742188 5.02605469 -0.53984375 3.86460938 -0.3671875 2.66796875 C-0.18542969 1.34732422 -0.18542969 1.34732422 0 0 Z " fill="#FCFEFD" transform="translate(358,76)"/>
<path d="M0 0 C21.45 0 42.9 0 65 0 C65 20.79 65 41.58 65 63 C64.67 63 64.34 63 64 63 C63.93683594 62.319375 63.87367188 61.63875 63.80859375 60.9375 C62.05322971 47.04240779 56.00414594 34.66188599 47 24 C46.39671875 23.28457031 45.7934375 22.56914062 45.171875 21.83203125 C33.41039631 9.05748402 16.90280733 2.85349933 0 1 C0 0.67 0 0.34 0 0 Z " fill="#FCFEFD" transform="translate(294,0)"/>
<path d="M0 0 C21.12 0 42.24 0 64 0 C64 0.33 64 0.66 64 1 C63.030625 1.12375 62.06125 1.2475 61.0625 1.375 C46.62238359 3.49111425 33.90127833 9.14342751 23 19 C22.401875 19.51820312 21.80375 20.03640625 21.1875 20.5703125 C9.01518808 31.81883289 2.95335002 46.8192648 1 63 C0.67 63 0.34 63 0 63 C0 42.21 0 21.42 0 0 Z " fill="#FBFEFD" transform="translate(0,0)"/>
<path d="M0 0 C2 3 2 3 2.8125 6.4375 C6.86283877 23.44892285 16.82974752 38.10867882 31.375 47.8125 C40.36152532 53.19175812 49.85515909 56.54367041 60 59 C60 59.33 60 59.66 60 60 C40.2 60 20.4 60 0 60 C0 40.2 0 20.4 0 0 Z " fill="#FCFEFD" transform="translate(0,80)"/>
<path d="M0 0 C0.99 0.33 1.98 0.66 3 1 C2.23419309 2.89786929 1.46212423 4.79321244 0.6875 6.6875 C0.25824219 7.74324219 -0.17101562 8.79898438 -0.61328125 9.88671875 C-2 13 -2 13 -3.79296875 15.64453125 C-5.27550444 17.89162928 -5.27550444 17.89162928 -4.453125 20.07421875 C3.88498935 31.12446169 20.19683496 38.36902889 33.61328125 40.39453125 C35.73733252 40.64228218 37.86846874 40.82810232 40 41 C40 41.33 40 41.66 40 42 C7.99 42 -24.02 42 -57 42 C-57 41.67 -57 41.34 -57 41 C-56.319375 40.93683594 -55.63875 40.87367188 -54.9375 40.80859375 C-36.6333079 38.49622906 -19.4814722 28.42422062 -8 14 C-4.97587697 9.53342293 -2.44617599 4.80123367 0 0 Z " fill="#FAFDFC" transform="translate(134,98)"/>
<path d="M0 0 C0.99 0 1.98 0 3 0 C3.3403125 0.68964844 3.680625 1.37929687 4.03125 2.08984375 C7.20780995 8.2486528 10.64431597 13.2346568 15.4609375 18.22265625 C17 20 17 20 17 22 C17.58136719 22.26425781 18.16273438 22.52851562 18.76171875 22.80078125 C21.08720709 24.04672352 22.81716104 25.46765163 24.8125 27.1875 C35.32146184 35.42611329 46.98030379 39.06089631 60 41 C60 41.33 60 41.66 60 42 C27.66 42 -4.68 42 -38 42 C-38 41.67 -38 41.34 -38 41 C-36.36804688 40.76216797 -36.36804688 40.76216797 -34.703125 40.51953125 C-18.21966512 37.97058142 -3.70554384 32.40900201 8 20 C6.59017469 15.12969439 4.46703101 10.83630241 2.12109375 6.3671875 C1.10820648 4.22847779 0.47357914 2.30936345 0 0 Z " fill="#F9FDFC" transform="translate(222,98)"/>
<path d="M0 0 C29.7 0 59.4 0 90 0 C87.66191466 2.33808534 87.04245382 2.24920039 83.875 2.625 C72.08017349 4.78509904 60.03342118 11.96657882 51.625 20.375 C51.08875 20.91125 50.5525 21.4475 50 22 C49.34 22 48.68 22 48 22 C48.6496875 23.12019531 49.299375 24.24039062 49.96875 25.39453125 C50.8128371 26.86699431 51.65656867 28.33966121 52.5 29.8125 C52.92925781 30.55048828 53.35851562 31.28847656 53.80078125 32.04882812 C54.20683594 32.76103516 54.61289063 33.47324219 55.03125 34.20703125 C55.59682617 35.18893433 55.59682617 35.18893433 56.17382812 36.19067383 C57 38 57 38 57 41 C53.20106553 39.73368851 52.90401184 38.53619744 50.9375 35.125 C40.44699974 18.15507311 25.83863718 8.26154185 6.8828125 2.89453125 C4 2 4 2 0 0 Z " fill="#FAFDFC" transform="translate(189,0)"/>
<path d="M0 0 C31.35 0 62.7 0 95 0 C95 0.33 95 0.66 95 1 C94.16339844 1.07476562 93.32679688 1.14953125 92.46484375 1.2265625 C78.69759165 2.78166739 66.86216288 7.1859217 56 16 C55.19304687 16.62132813 54.38609375 17.24265625 53.5546875 17.8828125 C47.28728385 23.04998228 42.94517803 28.99476811 38.57836914 35.76733398 C37.42891836 37.54041622 36.21956832 39.27439552 35 41 C34.34 41 33.68 41 33 41 C33.71220837 35.39522976 36.67762361 31.49251354 39.69921875 26.83984375 C41.26079448 24.18303004 41.26079448 24.18303004 40.5390625 21.90234375 C33.88984446 13.68364024 23.5381715 8.904889 14 5 C13.14921875 4.64035156 12.2984375 4.28070312 11.421875 3.91015625 C9.0181889 3.00683551 6.69877073 2.39974314 4.1875 1.875 C3.39730469 1.70742188 2.60710937 1.53984375 1.79296875 1.3671875 C0.90544922 1.18542969 0.90544922 1.18542969 0 1 C0 0.67 0 0.34 0 0 Z " fill="#FAFDFC" transform="translate(80,0)"/>
<path d="M0 0 C0.99 0.33 1.98 0.66 3 1 C1.68 4.3 0.36 7.6 -1 11 C-1.99 11 -2.98 11 -4 11 C-4 7.80389448 -3.45328458 6.58282374 -2 3.8125 C-1.62875 3.09707031 -1.2575 2.38164063 -0.875 1.64453125 C-0.441875 0.83048828 -0.441875 0.83048828 0 0 Z " fill="#E9F8F4" transform="translate(134,98)"/>
<path d="M0 0 C0.33 0.99 0.66 1.98 1 3 C-0.3125 5.1875 -0.3125 5.1875 -2 7 C-2.66 7 -3.32 7 -4 7 C-3.6875 4.625 -3.6875 4.625 -3 2 C-2.01 1.34 -1.02 0.68 0 0 Z " fill="#E6F7F2" transform="translate(117,34)"/>
</svg>
