<?xml version="1.0" encoding="UTF-8"?>
<svg version="1.1" xmlns="http://www.w3.org/2000/svg" width="216" height="233">
<path d="M0 0 C71.28 0 142.56 0 216 0 C216 76.89 216 153.78 216 233 C144.72 233 73.44 233 0 233 C0 156.11 0 79.22 0 0 Z " fill="#015F9E" transform="translate(0,0)"/>
<path d="M0 0 C33.99 0 67.98 0 103 0 C103 0.33 103 0.66 103 1 C101.58460937 1.12955078 101.58460937 1.12955078 100.140625 1.26171875 C84.03077546 3.02474445 71.93183526 10.12813881 58.11035156 18.19335938 C52.98564006 21.17003639 47.8331255 24.09793681 42.68371582 27.03158569 C31.09347868 33.63767668 19.5336927 40.29568601 8 47 C10.90941983 49.26949953 13.89460687 51.17557044 17.09375 53.01171875 C18.10953125 53.59630859 19.1253125 54.18089844 20.171875 54.78320312 C21.81929687 55.72583008 21.81929687 55.72583008 23.5 56.6875 C24.66157426 57.35461591 25.82303029 58.0219377 26.984375 58.68945312 C30.65385818 60.79715474 34.32648559 62.89933389 38 65 C38.58894043 65.33678772 39.17788086 65.67357544 39.78466797 66.02056885 C45.02784091 69.01835771 50.27219342 72.01407907 55.51782227 75.00756836 C64.47266916 80.11908934 73.40904733 85.26219664 82.33398438 90.42578125 C92.53418872 96.32288128 102.7695714 102.1540408 113 108 C113 149.25 113 190.5 113 233 C75.71 233 38.42 233 0 233 C0 156.11 0 79.22 0 0 Z " fill="#FBFCFD" transform="translate(0,0)"/>
<path d="M0 0 C7.22956983 3.48671937 14.16061562 7.3452731 21.0625 11.4375 C29.48662466 16.39441021 37.95772562 21.24967187 46.5 26 C57.83719999 32.31242676 69.06055381 38.80627216 80.24658203 45.38232422 C82.91081459 46.94760219 85.57797582 48.50776251 88.24609375 50.06640625 C89.80998272 50.98162237 91.37379034 51.89697755 92.9375 52.8125 C93.64777344 53.22725586 94.35804687 53.64201172 95.08984375 54.06933594 C99.88509711 56.88509711 99.88509711 56.88509711 101 58 C101.09578593 59.5181852 101.12188147 61.04082396 101.12025452 62.56202698 C101.12231651 64.04077301 101.12231651 64.04077301 101.12442017 65.5493927 C101.11902725 67.1850544 101.11902725 67.1850544 101.11352539 68.85375977 C101.11367142 69.99507355 101.11381744 71.13638733 101.1139679 72.31228638 C101.11326818 76.10534531 101.10547307 79.89835584 101.09765625 83.69140625 C101.09579228 86.31314568 101.09436828 88.93488546 101.09336853 91.55662537 C101.09025551 97.76501955 101.08204252 103.97339621 101.07201904 110.18178266 C101.06085699 117.24817441 101.05534722 124.31456699 101.05032361 131.38096535 C101.03985988 145.92065263 101.022261 160.46032607 101 175 C96.93241803 173.68677124 93.40095255 172.2510077 89.7109375 170.0859375 C88.7005542 169.49756104 87.6901709 168.90918457 86.64916992 168.30297852 C85.02845581 167.34862915 85.02845581 167.34862915 83.375 166.375 C81.64397561 165.36508169 79.91293827 164.35518502 78.18125916 163.34638977 C76.97570502 162.64396052 75.77052019 161.94089709 74.56568909 161.23722839 C70.23196351 158.70832111 65.88133458 156.21060079 61.51953125 153.73046875 C60.90420532 153.38038757 60.28887939 153.0303064 59.65490723 152.6696167 C56.69819894 150.98813887 53.74016797 149.30905245 50.78076172 147.63232422 C45.14430558 144.42423918 39.54321346 141.16576013 34.00390625 137.79296875 C32.97724854 137.16801514 31.95059082 136.54306152 30.89282227 135.89916992 C15.20892079 125.60251454 6.38446016 110.56773178 1 93 C0.875 90.125 0.875 90.125 1 88 C5.53124396 89.65412401 9.61864057 91.89701726 13.8125 94.25 C14.59238281 94.68546143 15.37226563 95.12092285 16.17578125 95.56958008 C24.6994622 100.35332954 33.12879591 105.29830037 41.5625 110.23828125 C48.52457848 114.31356506 55.51045798 118.34707716 62.5 122.375 C63.37144653 122.8772963 63.37144653 122.8772963 64.26049805 123.38973999 C67.50653792 125.2606282 70.75318233 127.13046144 74 129 C74.33 125.04 74.66 121.08 75 117 C73.35 116.34 71.7 115.68 70 115 C68.08344321 113.974849 66.1849447 112.91556831 64.30078125 111.83203125 C63.18622559 111.19313965 62.07166992 110.55424805 60.92333984 109.89599609 C59.71966883 109.20159745 58.51605697 108.50709629 57.3125 107.8125 C56.06736609 107.09691381 54.82208399 106.3815854 53.57666016 105.66650391 C50.35442487 103.81527447 47.13455332 101.95997271 43.91522217 100.10369873 C41.44497029 98.68014907 38.97313201 97.2593689 36.50120544 95.83872986 C33.62503583 94.18548568 30.74998346 92.53030618 27.875 90.875 C26.82868408 90.27276611 25.78236816 89.67053223 24.7043457 89.05004883 C18.4306977 85.42987694 12.19740952 81.74921906 6 78 C10.2483823 73.48247008 15.10882027 70.71251041 20.4375 67.625 C21.37916016 67.05394531 22.32082031 66.48289062 23.29101562 65.89453125 C24.20431641 65.36472656 25.11761719 64.83492188 26.05859375 64.2890625 C27.30080688 63.55743896 27.30080688 63.55743896 28.56811523 62.81103516 C31 62 31 62 33.43554688 62.6550293 C34.28181641 63.09886963 35.12808594 63.54270996 36 64 C37.41357788 64.73899536 37.41357788 64.73899536 38.85571289 65.49291992 C40.39859985 66.35300659 40.39859985 66.35300659 41.97265625 67.23046875 C43.12056641 67.86919922 44.26847656 68.50792969 45.45117188 69.16601562 C46.34340454 69.66548706 46.34340454 69.66548706 47.25366211 70.17504883 C49.03127959 71.17002517 50.81128165 72.16061109 52.59179688 73.15039062 C60.11677799 77.34200075 67.57236593 81.63845707 75 86 C75 81.71 75 77.42 75 73 C73.35 72.34 71.7 71.68 70 71 C68.13501929 70.03308685 66.28572798 69.03557987 64.44921875 68.015625 C62.83080078 67.1179541 62.83080078 67.1179541 61.1796875 66.20214844 C60.01547953 65.55169258 58.85142071 64.90096973 57.6875 64.25 C57.09308105 63.91875122 56.49866211 63.58750244 55.88623047 63.24621582 C46.37170317 57.94306792 36.85513289 52.62395084 27.5534668 46.95385742 C22.88409103 44.12594779 18.40576549 41.67269583 13.28125 39.76953125 C2.95219559 35.63846786 2.95219559 35.63846786 0 31 C-2.29610903 20.87849174 -1.15345208 10.21855809 0 0 Z " fill="#015F9E" transform="translate(1,57)"/>
<path d="M0 0 C32.67 0 65.34 0 99 0 C99 76.89 99 153.78 99 233 C65.34 233 31.68 233 -3 233 C0.49234453 230.20612437 3.29435824 228.13435062 7.11328125 226.0390625 C8.10183105 225.4922583 9.09038086 224.9454541 10.10888672 224.38208008 C11.1660791 223.80224365 12.22327148 223.22240723 13.3125 222.625 C23.07021292 217.21900764 32.75543083 211.70845974 42.36914062 206.05029297 C47.00002736 203.32592604 51.6384554 200.62853965 56.33984375 198.02734375 C77.20842583 186.43413415 89.32826324 172.58392984 96.04086304 149.40600586 C97.19637843 144.71113881 97.3067429 140.18768676 97.31884766 135.37109375 C97.32889328 134.44333633 97.3389389 133.51557892 97.34928894 132.55970764 C97.37997098 129.51897758 97.39711425 126.47833495 97.4140625 123.4375 C97.4327862 121.31900284 97.4523605 119.20051305 97.4727478 117.08203125 C97.52394791 111.52549593 97.56363842 105.96893647 97.60089111 100.41229248 C97.64100689 94.73443691 97.69206462 89.05668074 97.7421875 83.37890625 C97.83880322 72.25267411 97.92325378 61.1263857 98 50 C97.06032379 49.69595245 96.12064758 49.39190491 95.15249634 49.0786438 C92.20009669 48.06846417 89.82004635 46.89661802 87.1484375 45.3046875 C86.22909424 44.76183105 85.30975098 44.21897461 84.36254883 43.65966797 C83.37665771 43.07072754 82.3907666 42.48178711 81.375 41.875 C79.22075202 40.60298053 77.06577381 39.33219714 74.91015625 38.0625 C73.7823877 37.39734375 72.65461914 36.7321875 71.49267578 36.046875 C64.45588344 31.91173818 57.35284505 27.89063977 50.26025391 23.85229492 C44.77564894 20.72901147 39.29620485 17.59824904 33.83984375 14.42578125 C32.89069092 13.87615723 31.94153809 13.3265332 30.96362305 12.76025391 C29.22136696 11.75048209 27.4817049 10.73621369 25.74536133 9.71630859 C19.0919891 5.8712182 12.65677013 3.05672515 5 1.8125 C4.05125 1.65394531 3.1025 1.49539062 2.125 1.33203125 C1.073125 1.16767578 1.073125 1.16767578 0 1 C0 0.67 0 0.34 0 0 Z " fill="#FDFDFE" transform="translate(117,0)"/>
<path d="M0 0 C1.23520386 0.01740234 1.23520386 0.01740234 2.49536133 0.03515625 C25.16865467 0.64007393 44.60849939 15.27414007 63.5625 26.375 C65.36706322 27.4272965 67.17174055 28.47939733 68.9765625 29.53125 C70.52634671 30.43697824 72.07584943 31.3431884 73.625 32.25 C74.32681396 32.66040527 75.02862793 33.07081055 75.75170898 33.49365234 C80.44298698 36.25548698 80.44298698 36.25548698 81.5625 37.375 C81.68311978 39.47294224 81.73277777 41.57498414 81.75537109 43.67626953 C81.76763733 44.66447189 81.76763733 44.66447189 81.78015137 45.67263794 C81.80508642 47.86768692 81.8215588 50.06266997 81.8359375 52.2578125 C81.84126118 53.01045254 81.84658485 53.76309258 81.85206985 54.53853989 C81.87886063 58.53691337 81.8981999 62.53525529 81.91259766 66.53369141 C81.92583438 69.81978842 81.9534836 73.10524921 81.99462891 76.39111328 C82.04449286 80.37351198 82.06878616 84.35534197 82.07582474 88.3380394 C82.08246155 89.84405593 82.09748084 91.35006365 82.12171555 92.85589981 C82.35121368 108.00397336 79.02089788 121.11691634 69.5625 133.375 C68.95921875 134.1690625 68.3559375 134.963125 67.734375 135.78125 C59.31942182 145.38052992 46.87466127 151.76512123 35.5625 157.375 C34.9025 157.375 34.2425 157.375 33.5625 157.375 C32.73690032 153.1411555 32.47201203 149.57673801 33.5625 145.375 C37.42358072 141.83419326 41.92511158 139.72447334 46.5625 137.375 C57.94271708 130.46558249 65.9132541 121.06770484 69.11949158 107.97731018 C70.08361882 102.31385548 69.92788678 96.54324183 69.9765625 90.8125 C69.99530205 89.41144709 70.01487748 88.01040514 70.0352478 86.609375 C70.08628108 82.94674173 70.12605957 79.28407198 70.16339111 75.62127686 C70.20361286 71.87373038 70.25462169 68.12633185 70.3046875 64.37890625 C70.40110503 57.04437282 70.48561746 49.70976699 70.5625 42.375 C69.61878036 42.06814774 68.67506073 41.76129547 67.70274353 41.44514465 C64.9448018 40.50528232 62.6951974 39.47238332 60.19140625 38.01171875 C59.38098877 37.54306396 58.57057129 37.07440918 57.7355957 36.59155273 C56.87409912 36.08696533 56.01260254 35.58237793 55.125 35.0625 C53.25534404 33.98413969 51.3855471 32.90602376 49.515625 31.828125 C46.5073674 30.08545155 43.50124171 28.33927576 40.49804688 26.58789062 C37.46219064 24.82034766 34.41906094 23.06586516 31.375 21.3125 C30.44437744 20.76489014 29.51375488 20.21728027 28.55493164 19.65307617 C19.5836995 14.50264136 11.44203387 11.81003938 1.0625 12 C0.2286377 12.01305176 -0.60522461 12.02610352 -1.46435547 12.03955078 C-9.6338023 12.26803326 -15.5564696 13.43807212 -22.4609375 17.9765625 C-34.10472891 25.56023791 -34.10472891 25.56023791 -38.75390625 24.9140625 C-41.28647374 23.60995236 -43.33353317 22.28769712 -45.4375 20.375 C-45.4375 19.385 -45.4375 18.395 -45.4375 17.375 C-41.51160852 15.08365355 -37.56993333 12.82087977 -33.625 10.5625 C-31.97467773 9.59860352 -31.97467773 9.59860352 -30.29101562 8.61523438 C-20.39125983 2.97909022 -11.43905347 -0.21136729 0 0 Z " fill="#F9FAFC" transform="translate(106.4375,28.625)"/>
<path d="M0 0 C19.31061272 -1.29456622 33.32345764 6.71391005 49 17 C51.67822663 19.67822663 50.31873265 27.24931291 50.35009766 31.08813477 C50.36648057 32.55151468 50.39353005 34.0148207 50.43212891 35.4777832 C50.7830579 48.86038404 47.66583938 58.9271209 40 70 C39.67 70 39.34 70 39 70 C39 54.49 39 38.98 39 23 C36.525 22.01 36.525 22.01 34 21 C32.10440809 20.00132595 30.22510417 18.97137903 28.359375 17.91796875 C27.28816406 17.31533203 26.21695313 16.71269531 25.11328125 16.09179688 C24.00339844 15.46337891 22.89351562 14.83496094 21.75 14.1875 C19.55735267 12.95171467 17.36464536 11.71603576 15.171875 10.48046875 C14.12708984 9.89056152 13.08230469 9.3006543 12.00585938 8.69287109 C8.013555 6.44444366 4.00939261 4.21778381 0 2 C0 1.34 0 0.68 0 0 Z " fill="#F8FAFB" transform="translate(101,70)"/>
</svg>
