<svg xmlns="http://www.w3.org/2000/svg"  viewBox="0 0 100 100" width="100px" height="100px"><path d="M 49.984375 10.546875 C 45.752549 10.521355 41.513145 11.570287 37.691406 13.693359 L 15.558594 25.990234 A 1.0001 1.0001 0 0 0 15.548828 27.732422 L 50 47.419922 L 50 88.888672 A 1.0001 1.0001 0 0 0 51.486328 89.763672 L 73.142578 77.732422 C 81.077535 73.323881 86 64.956311 86 55.878906 L 86 28 A 1.0001 1.0001 0 0 0 85.496094 27.130859 L 62.236328 13.839844 C 58.440622 11.670943 54.216201 10.572397 49.984375 10.546875 z M 49.972656 12.546875 C 53.86533 12.570355 57.750847 13.582026 61.244141 15.578125 L 84 28.580078 L 84 55.878906 C 84 64.233502 79.472965 71.926916 72.169922 75.984375 L 52 87.189453 L 52 46.839844 A 1.0001 1.0001 0 0 0 51.496094 45.972656 L 18.080078 26.876953 L 38.664062 15.441406 C 42.181325 13.487479 46.079983 12.523397 49.972656 12.546875 z M 50.46875 14.068359 C 47.835865 14.016799 45.189873 14.59647 42.765625 15.808594 A 0.50005814 0.50005814 0 0 0 43.212891 16.703125 C 47.768394 14.425373 53.152745 14.530296 57.615234 16.984375 L 70.259766 23.9375 A 0.50005 0.50005 0 1 0 70.740234 23.0625 L 58.097656 16.107422 C 55.722901 14.801461 53.101635 14.119924 50.46875 14.068359 z M 50.001953 19.546875 C 46.681191 19.552775 43.361523 20.425974 40.402344 22.166016 L 32.470703 26.830078 A 1.0001 1.0001 0 0 0 32.509766 28.576172 L 36.660156 30.775391 A 1.0001 1.0001 0 0 0 37.636719 30.751953 L 43.443359 27.337891 C 47.49207 24.956951 52.525928 24.94741 56.583984 27.314453 L 71 35.722656 L 71 53.027344 C 71 57.516982 68.610615 61.778449 64.779297 64.119141 L 59.478516 67.359375 A 1.0001 1.0001 0 0 0 59 68.212891 L 59 72.898438 A 1.0001 1.0001 0 0 0 60.521484 73.751953 L 67.908203 69.238281 C 73.522614 65.807076 77 59.606741 77 53.025391 L 77 32.851562 A 1.0001 1.0001 0 0 0 76.503906 31.988281 L 59.607422 22.130859 C 56.643833 20.401792 53.322715 19.540938 50.001953 19.546875 z M 50.005859 21.546875 C 52.977097 21.541575 55.948198 22.312443 58.599609 23.859375 L 75 33.425781 L 75 53.025391 C 75 58.90004 71.876823 64.468455 66.865234 67.53125 L 61 71.115234 L 61 68.773438 L 65.822266 65.826172 C 70.256947 63.116863 73 58.223706 73 53.027344 L 73 35.148438 A 1.0001 1.0001 0 0 0 72.503906 34.285156 L 57.591797 25.585938 C 52.909854 22.854982 47.100976 22.866224 42.429688 25.613281 L 37.103516 28.746094 L 35.027344 27.646484 L 41.416016 23.890625 C 44.063836 22.333667 47.034622 21.552188 50.005859 21.546875 z M 73.470703 24.996094 A 0.50005 0.50005 0 0 0 73.242188 25.929688 L 78.242188 28.929688 A 0.5010976 0.5010976 0 1 0 78.757812 28.070312 L 73.757812 25.070312 A 0.50005 0.50005 0 0 0 73.470703 24.996094 z M 14.019531 29.302734 A 1.0001 1.0001 0 0 0 13 30.302734 L 13 40.554688 A 1.0001 1.0001 0 0 0 13.503906 41.421875 L 36 54.277344 L 36 56.580078 L 24.826172 50.195312 A 1.0001 1.0001 0 0 0 23.792969 50.220703 L 16.015625 55.169922 A 1.0001 1.0001 0 0 0 16.056641 56.880859 L 36 68.277344 L 36 70.580078 L 14.712891 58.416016 A 1.0001 1.0001 0 0 0 13.224609 59.417969 C 14.255906 67.067272 18.788402 73.887383 25.597656 77.777344 L 46.503906 89.724609 A 1.0001 1.0001 0 0 0 48 88.857422 L 48 49.160156 A 1.0001 1.0001 0 0 0 47.496094 48.291016 L 14.496094 29.435547 A 1.0001 1.0001 0 0 0 14.019531 29.302734 z M 15 32.027344 L 46 49.740234 L 46 87.132812 L 26.589844 76.041016 C 20.988052 72.840849 17.205025 67.442429 15.757812 61.316406 L 36.503906 73.171875 A 1.0001 1.0001 0 0 0 38 72.304688 L 38 67.697266 A 1.0001 1.0001 0 0 0 37.496094 66.828125 L 18.488281 55.966797 L 24.357422 52.232422 L 36.503906 59.171875 A 1.0001 1.0001 0 0 0 38 58.304688 L 38 53.697266 A 1.0001 1.0001 0 0 0 37.496094 52.828125 L 15 39.974609 L 15 32.027344 z M 51.644531 34.191406 C 50.33681 34.20822 49.026377 34.411853 47.755859 34.806641 A 1.0001 1.0001 0 0 0 47.578125 36.640625 L 59 42.791016 L 59 56 A 1.0001 1.0001 0 0 0 60.707031 56.707031 C 63.455323 53.95874 65 50.230613 65 46.34375 L 65 39.806641 A 1.0001 1.0001 0 0 0 64.449219 38.912109 L 57.978516 35.652344 C 56.393929 34.854118 54.685221 34.380086 52.949219 34.236328 C 52.515218 34.200389 52.080438 34.185802 51.644531 34.191406 z M 52.783203 36.228516 C 54.265451 36.351258 55.724712 36.757679 57.078125 37.439453 L 63 40.421875 L 63 46.34375 C 63 48.656477 62.16979 50.78785 61 52.738281 L 61 42.193359 A 1.0001 1.0001 0 0 0 60.474609 41.314453 L 51.326172 36.388672 C 51.815418 36.367682 52.296097 36.188179 52.783203 36.228516 z M 43.492188 60.992188 A 0.50005 0.50005 0 0 0 43 61.5 L 43 67.5 A 0.50005 0.50005 0 1 0 44 67.5 L 44 61.5 A 0.50005 0.50005 0 0 0 43.492188 60.992188 z M 43.492188 69.992188 A 0.50005 0.50005 0 0 0 43 70.5 L 43 81.650391 L 34.742188 77.0625 A 0.50006127 0.50006127 0 1 0 34.257812 77.9375 L 43.257812 82.9375 A 0.50005 0.50005 0 0 0 44 82.5 L 44 70.5 A 0.50005 0.50005 0 0 0 43.492188 69.992188 z"/></svg>